<svg width="28" height="29" viewBox="0 0 28 29" fill="none" xmlns="http://www.w3.org/2000/svg">
<path d="M19.6452 0C18.5487 0.00968792 17.4619 0.165575 16.4068 0.472066L16.3337 0.495846C15.6723 0.380471 14.9986 0.317059 14.3292 0.302968C12.9438 0.279188 11.7549 0.613862 10.7966 1.174C9.85163 0.849014 7.89291 0.279188 5.8285 0.394563C4.3938 0.472066 2.82436 0.908023 1.65829 2.13751C0.502781 3.36259 -0.111081 5.26142 0.0166238 7.84898C0.0527333 8.55972 0.255299 9.71963 0.594376 11.2283C0.92905 12.7335 1.402 14.4949 1.99384 16.1049C2.58569 17.7104 3.23125 19.1548 4.24144 20.1359C4.74521 20.6265 5.44274 21.0448 6.26357 21.0087C6.8378 20.9849 7.35567 20.733 7.80571 20.3614C8.02501 20.6503 8.26017 20.7736 8.47066 20.8889C8.74192 21.036 8.99821 21.1364 9.26947 21.2016C9.75563 21.3249 10.5861 21.4861 11.5585 21.3205C11.8887 21.265 12.2375 21.1558 12.5863 21.0043C12.6004 21.3892 12.6144 21.7696 12.6277 22.1554C12.6779 23.3708 12.7113 24.4946 13.0724 25.481C13.1323 25.6422 13.2935 26.4674 13.9258 27.201C14.5635 27.9347 15.8009 28.3891 17.2189 28.0862C18.2149 27.8748 19.4849 27.4899 20.3296 26.2886C21.1645 25.1049 21.5405 23.4034 21.6145 20.6414C21.6321 20.49 21.6559 20.3667 21.6779 20.2469L21.8752 20.2654H21.899C22.9629 20.3112 24.1193 20.1597 25.0872 19.7096C25.9397 19.3151 26.5871 18.9161 27.0591 18.2054C27.1745 18.0301 27.3066 17.8152 27.3401 17.448C27.3762 17.086 27.1648 16.5117 26.8161 16.2466C26.1194 15.7147 25.6791 15.9164 25.2061 16.0177C24.7437 16.1189 24.2699 16.1727 23.7978 16.1868C25.155 13.9031 26.1273 11.4723 26.6831 9.32419C27.0133 8.05331 27.1974 6.88371 27.2106 5.86119C27.2291 4.83868 27.1428 3.93506 26.5316 3.15122C24.6143 0.706338 21.921 0.0264216 19.839 0.0044036C19.7747 0.0044036 19.7113 0.0044036 19.6461 0.0044036L19.6452 0ZM19.5898 0.753016C21.5582 0.734521 24.0753 1.28497 25.8825 3.59598C26.2912 4.11473 26.4109 4.87126 26.3968 5.80747C26.3827 6.74368 26.2092 7.85779 25.8922 9.08287C25.2827 11.4599 24.1211 14.2201 22.4935 16.7029C22.549 16.7443 22.6124 16.7804 22.6767 16.8041C23.0158 16.9459 23.7908 17.0648 25.3409 16.7487C25.731 16.665 26.0164 16.6113 26.3141 16.8359C26.4611 16.9592 26.5386 17.1432 26.5289 17.3361C26.5113 17.4779 26.4611 17.6153 26.3731 17.7307C26.0745 18.1789 25.4844 18.607 24.727 18.9601C24.0576 19.271 23.0933 19.4322 22.246 19.4419C21.8153 19.4463 21.4208 19.4137 21.0843 19.308L21.0667 19.3045C20.9373 20.5472 20.6405 23.0062 20.4467 24.1247C20.2917 25.0274 20.0204 25.7487 19.5026 26.2851C18.9838 26.8267 18.2546 27.1473 17.2682 27.3587C16.0484 27.6203 15.1624 27.3402 14.5899 26.8584C14.0174 26.3767 13.755 25.7346 13.5991 25.3445C13.4899 25.0741 13.4344 24.7253 13.3798 24.2568C13.3243 23.7891 13.2882 23.2202 13.26 22.5737C13.2239 21.5873 13.2098 20.6009 13.2239 19.6101C12.7157 20.0787 12.0825 20.3852 11.4026 20.5049C10.5914 20.6423 9.871 20.5049 9.44033 20.3992C9.22896 20.3438 9.02199 20.2663 8.82999 20.1606C8.62831 20.0549 8.43983 19.936 8.31213 19.6964C8.23815 19.559 8.21613 19.3996 8.24784 19.2481C8.28395 19.0923 8.37554 18.9593 8.5006 18.858C8.73399 18.6686 9.04225 18.5647 9.50462 18.4678C10.3492 18.2926 10.6469 18.1745 10.8257 18.031C10.9772 17.9121 11.1525 17.6646 11.4537 17.3018C11.4537 17.2885 11.4537 17.27 11.4493 17.256C10.9041 17.2383 10.3713 17.0965 9.8895 16.8341C9.716 17.0173 8.8115 17.972 7.71588 19.2931C7.25703 19.8426 6.74797 20.1597 6.20721 20.1835C5.67085 20.2055 5.18293 19.936 4.77075 19.5361C3.94552 18.7329 3.2841 17.352 2.71075 15.7922C2.1374 14.2324 1.67414 12.4948 1.33947 11.0178C1.0092 9.53556 0.811914 8.34306 0.783731 7.76971C0.66043 5.32483 1.23378 3.67877 2.2149 2.63688C3.19602 1.59498 4.54088 1.20571 5.85316 1.1282C8.20644 0.995214 10.4444 1.81605 10.8944 1.99043C11.7654 1.39858 12.8892 1.0322 14.2931 1.05422C14.9589 1.06391 15.6186 1.15022 16.2659 1.31139L16.2897 1.2973C16.5742 1.2013 16.863 1.11411 17.1563 1.0507C17.9551 0.861344 18.7707 0.765346 19.5871 0.752135L19.5898 0.753016ZM19.7685 1.53686H19.595C18.9257 1.54478 18.2502 1.62405 17.5949 1.76584C19.0578 2.41317 20.1631 3.40751 20.9425 4.40801C21.4842 5.09585 21.9289 5.85239 22.268 6.66001C22.4019 6.97266 22.4891 7.23336 22.5349 7.43504C22.5622 7.53632 22.5763 7.62263 22.5851 7.70983C22.5851 7.75562 22.5895 7.8023 22.5666 7.8798C22.5666 7.88421 22.5622 7.8939 22.5622 7.8983C22.6001 8.9261 22.3429 9.62187 22.3094 10.6039C22.2874 11.3155 22.4706 12.1504 22.5164 13.0628C22.5578 13.9198 22.453 14.8604 21.8972 15.7869C21.943 15.8424 21.9844 15.897 22.0302 15.9569C23.5028 13.6353 24.5667 11.0715 25.1312 8.88295C25.4342 7.70366 25.5936 6.63535 25.6077 5.7925C25.6218 4.94789 25.4659 4.33314 25.2634 4.07685C23.6851 2.06265 21.5529 1.54831 19.7677 1.53598L19.7685 1.53686ZM14.1399 1.83894C12.7554 1.84335 11.7593 2.26169 11.0036 2.88964C10.2224 3.54138 9.70014 4.4265 9.36107 5.33893C8.95241 6.41693 8.81062 7.46234 8.75513 8.17397L8.77363 8.16428C9.19197 7.93089 9.74154 7.69221 10.3334 7.55922C10.9208 7.42095 11.5585 7.37956 12.1309 7.60502C12.7096 7.82432 13.1816 8.35187 13.356 9.1454C14.183 12.9712 13.0997 14.3936 12.7008 15.4663C12.5493 15.8565 12.4163 16.2511 12.3106 16.6544C12.3608 16.6447 12.4119 16.6306 12.4621 16.6262C12.7466 16.6042 12.9659 16.6958 13.0953 16.7504C13.4996 16.9195 13.7744 17.2683 13.9258 17.6673C13.9619 17.7729 13.9893 17.8821 14.0077 18.0019C14.0218 18.0477 14.0315 18.0979 14.0315 18.149C13.9857 19.6119 13.9893 21.0756 14.0447 22.5385C14.0729 23.1718 14.1143 23.7266 14.1645 24.167C14.2147 24.6029 14.2834 24.9376 14.3301 25.0521C14.4807 25.4282 14.7009 25.9187 15.1007 26.2534C15.4953 26.5889 16.0633 26.8091 17.1052 26.5889C18.008 26.3917 18.5637 26.1248 18.9345 25.7399C19.307 25.3498 19.5263 24.8134 19.6681 23.9926C19.8839 22.7587 20.3102 19.1803 20.3613 18.511C20.3392 18.001 20.4115 17.6118 20.577 17.3132C20.7417 17.0102 20.9989 16.8226 21.2244 16.7214C21.3336 16.6712 21.4393 16.6395 21.5265 16.6113C21.4349 16.4836 21.3389 16.355 21.242 16.2308C20.9214 15.8406 20.6545 15.4056 20.4573 14.9423C20.3657 14.7485 20.2644 14.5557 20.1543 14.3725C19.9993 14.0933 19.802 13.7392 19.595 13.3403C19.182 12.5511 18.7328 11.5885 18.4985 10.6523C18.2652 9.71611 18.2334 8.74908 18.8297 8.07004C19.3572 7.46411 20.2882 7.2131 21.6771 7.3549C21.6357 7.23071 21.6136 7.12503 21.5441 6.96474C21.2279 6.22141 20.8148 5.52388 20.319 4.89064C19.1397 3.38197 17.2268 1.88562 14.2781 1.83542L14.1399 1.83894ZM6.34284 1.89883C6.19576 1.89883 6.04427 1.90324 5.89807 1.91292C4.70998 1.9825 3.59059 2.3251 2.78737 3.17412C1.98503 4.02753 1.45836 5.41731 1.57198 7.7248C1.59576 8.16516 1.78335 9.38496 2.10833 10.839C2.43508 12.294 2.89746 14.0052 3.45319 15.5183C4.00717 17.027 4.67828 18.3436 5.32032 18.9672C5.6409 19.2746 5.92009 19.4032 6.17286 19.3943C6.42563 19.3803 6.733 19.2332 7.10906 18.784C7.7925 17.9588 8.49972 17.16 9.23336 16.3805C8.17738 15.4584 7.65952 14.0651 7.86648 12.6789C7.98538 11.8122 8.00388 10.9993 7.98538 10.3573C7.97217 9.73372 7.9299 9.32154 7.9299 9.05997C7.9299 9.05028 7.9299 9.04588 7.9299 9.03619V9.03179L7.92549 9.02386C7.92549 7.67019 8.16505 6.3315 8.62302 5.06062C8.95329 4.18342 9.44033 3.29918 10.1731 2.57787C9.45354 2.33919 8.17298 1.9825 6.78848 1.91292C6.6414 1.90324 6.48904 1.89883 6.34284 1.89883ZM20.9011 8.09998C20.1041 8.11408 19.6584 8.32105 19.4207 8.58614C19.0895 8.96749 19.0578 9.63684 19.2648 10.463C19.47 11.2882 19.898 12.2103 20.297 12.9774C20.4943 13.3623 20.6871 13.7067 20.8421 13.9858C21.0033 14.2703 21.1178 14.4676 21.1865 14.642C21.2508 14.7979 21.3248 14.9353 21.3979 15.0638C21.7052 14.4121 21.7607 13.7745 21.7281 13.1051C21.6867 12.2799 21.4948 11.4353 21.5265 10.5827C21.559 9.58224 21.7563 8.9305 21.7704 8.15987C21.4851 8.12377 21.1918 8.09998 20.9029 8.09998H20.9011ZM11.2326 8.23914C10.9895 8.23914 10.7464 8.27085 10.5078 8.32633C10.0348 8.44171 9.58125 8.61521 9.1541 8.85388C9.0123 8.93139 8.87491 9.01946 8.74632 9.12074L8.71814 9.14276C8.72783 9.31802 8.75953 9.7302 8.77363 10.3449C8.78772 11.0143 8.77363 11.8668 8.64592 12.7898C8.36145 14.7987 9.81992 16.4598 11.5312 16.4642C11.6324 16.0511 11.7963 15.6328 11.9618 15.1933C12.4383 13.9083 13.3745 12.973 12.5854 9.31274C12.4577 8.71649 12.2005 8.47341 11.8465 8.33602C11.6492 8.26644 11.444 8.23474 11.2326 8.24002V8.23914ZM20.5304 8.47693H20.5903C20.6634 8.48134 20.7373 8.48662 20.8007 8.50424C20.8606 8.51833 20.9161 8.53682 20.9619 8.56853C21.0077 8.59583 21.0394 8.64163 21.0491 8.69623V8.70592C21.0491 8.76141 21.035 8.81601 21.0077 8.86709C20.9716 8.9305 20.9302 8.99039 20.88 9.04059C20.7602 9.17358 20.5991 9.26166 20.4256 9.28808C20.2556 9.31186 20.0865 9.26606 19.9438 9.16918C19.8883 9.12691 19.8337 9.08111 19.7923 9.03091C19.7509 8.98951 19.728 8.93491 19.7183 8.87942C19.7148 8.8257 19.728 8.77021 19.7641 8.72882C19.8064 8.68655 19.8522 8.65044 19.9024 8.62313C20.016 8.55884 20.1675 8.51304 20.3428 8.48926C20.4062 8.48134 20.4705 8.47605 20.5304 8.47165V8.47693ZM11.3462 8.67421C11.4061 8.67421 11.4757 8.67862 11.54 8.68743C11.7232 8.71561 11.879 8.76141 12.0023 8.83451C12.0622 8.86269 12.1177 8.90849 12.1582 8.95869C12.204 9.01417 12.2261 9.08199 12.2225 9.15597C12.2084 9.22378 12.1803 9.28896 12.1345 9.33916C12.0843 9.39905 12.0296 9.44925 11.9654 9.49064C11.8139 9.60073 11.6263 9.64653 11.4378 9.62363C11.2485 9.59193 11.0749 9.50033 10.9472 9.35854C10.8918 9.29865 10.846 9.23435 10.809 9.16566C10.7676 9.10136 10.75 9.02826 10.7588 8.95428C10.7773 8.83098 10.883 8.76141 10.9842 8.7253C11.0996 8.68743 11.2229 8.6751 11.3462 8.6795V8.67421ZM21.9844 17.2973H21.98C21.8109 17.3616 21.6691 17.3854 21.5494 17.4409C21.4261 17.4867 21.3283 17.5783 21.2702 17.6919C21.1918 17.8258 21.1328 18.0645 21.1504 18.4713C21.2006 18.5092 21.2605 18.5356 21.3257 18.555C21.5229 18.6149 21.862 18.6563 22.2381 18.651C22.9858 18.6413 23.9079 18.4678 24.3985 18.238C24.7975 18.0548 25.1735 17.8073 25.5038 17.5184C23.8665 17.8531 22.9453 17.7659 22.3755 17.5325C22.2381 17.4726 22.1042 17.3942 21.9844 17.2973ZM12.5537 17.4074H12.5299C12.4665 17.4118 12.3784 17.4356 12.1996 17.6285C11.791 18.0865 11.6492 18.3753 11.3145 18.6422C10.9754 18.9126 10.5395 19.0553 9.66315 19.2341C9.38837 19.2895 9.2272 19.3529 9.12151 19.4032C9.15322 19.4313 9.15322 19.441 9.20342 19.463C9.33288 19.537 9.4967 19.5969 9.63057 19.633C10.0066 19.7246 10.6205 19.8347 11.2678 19.7246C11.9099 19.6145 12.5792 19.3063 13.1534 18.5048C13.2547 18.3674 13.2627 18.1605 13.1808 17.9403C13.0988 17.7254 12.9192 17.5325 12.7959 17.4823C12.7175 17.4444 12.6347 17.4224 12.5528 17.4083L12.5537 17.4074Z" fill="white"/>
</svg>
