<svg width="28" height="16" viewBox="0 0 28 16" fill="none" xmlns="http://www.w3.org/2000/svg">
<path d="M27.344 15.4505C26.3494 15.7035 25.7343 15.4614 25.1825 14.6326C23.9437 12.7765 22.5761 11.0055 21.2566 9.20174C21.0865 8.96836 20.9098 8.73935 20.6895 8.44927C19.1279 10.5562 17.5684 12.5628 16.1049 14.65C15.5814 15.396 15.0318 15.721 14.0547 15.457L19.9261 7.57684L14.4604 0.460002C15.4004 0.276792 16.0504 0.370579 16.6262 1.21247C17.8977 3.07074 19.3002 4.83959 20.6982 6.71095C22.105 4.84614 23.49 3.07511 24.7986 1.23428C25.3243 0.488356 25.8892 0.204817 26.8336 0.479632C26.1182 1.4284 25.4181 2.3619 24.7136 3.28885C23.7626 4.53861 22.8291 5.80363 21.8433 7.02721C21.4921 7.46342 21.5488 7.74696 21.8629 8.15918C23.6863 10.5562 25.4879 12.9772 27.344 15.4505Z" fill="white"/>
<path d="M0.00654323 7.44598C0.16358 6.65861 0.268272 5.85598 0.486379 5.08388C1.79502 0.409841 7.16046 -1.53349 10.8465 1.36297C13.0057 3.06202 13.5423 5.45684 13.4354 8.15701H1.26502C1.08181 13.0012 4.56934 15.926 9.01437 14.4341C10.5738 13.9107 11.4921 12.6893 11.9523 11.1625C12.1856 10.397 12.5717 10.277 13.2914 10.4951C12.9228 12.4057 12.0875 14.0023 10.3426 15.0012C7.72535 16.4974 3.98918 16.0132 2.02403 13.9347C0.863704 12.7133 0.370782 11.1931 0.152675 9.55071C0.119959 9.28898 0.0523457 9.03162 0 8.77207C0.00436214 8.33004 0.00654323 7.88801 0.00654323 7.44598ZM1.28683 7.121H12.286C12.214 3.6182 10.0329 1.1296 7.0514 1.10778C3.7798 1.08161 1.4286 3.51133 1.28683 7.121Z" fill="white"/>
</svg>
