<svg width="28" height="28" viewBox="0 0 28 28" fill="none" xmlns="http://www.w3.org/2000/svg">
<path d="M26.2017 0H13.0342C13.0342 1.57646 13.6604 3.08834 14.7751 4.20307C15.8899 5.31779 17.4018 5.94404 18.9782 5.94404H21.4038V8.28586C21.4059 11.5657 24.0642 14.224 27.344 14.2261V1.14235C27.344 0.511448 26.8326 0 26.2017 0Z" fill="white"/>
<path d="M19.6865 6.56091H6.51904C6.52114 9.84074 9.17944 12.499 12.4593 12.5011H14.8849V14.8506C14.8891 18.1304 17.5491 20.787 20.8289 20.787V7.70326C20.8289 7.07236 20.3175 6.56091 19.6865 6.56091Z" fill="url(#paint0_linear_103_113)"/>
<path d="M13.1675 13.118H0C0 16.4008 2.66124 19.062 5.94404 19.062H8.37724V21.4038C8.37934 24.6807 11.033 27.3378 14.3099 27.3441V14.2603C14.3099 13.6294 13.7984 13.118 13.1675 13.118Z" fill="url(#paint1_linear_103_113)"/>
<defs>
<linearGradient id="paint0_linear_103_113" x1="3597.71" y1="12.4098" x2="2172.49" y2="1499.55" gradientUnits="userSpaceOnUse">
<stop offset="0.18" stop-color="white"/>
<stop offset="1" stop-color="white"/>
</linearGradient>
<linearGradient id="paint1_linear_103_113" x1="3687.69" y1="29.69" x2="2039.07" y2="1651.7" gradientUnits="userSpaceOnUse">
<stop offset="0.18" stop-color="white"/>
<stop offset="1" stop-color="white"/>
</linearGradient>
</defs>
</svg>
