<svg width="28" height="39" viewBox="0 0 28 39" fill="none" xmlns="http://www.w3.org/2000/svg">
<path d="M3.46501 18.191C6.74204 19.3428 10.1992 19.8973 13.672 19.8281C17.145 19.8969 20.6021 19.3419 23.8791 18.1896C26.437 17.192 27.3441 16.0832 27.3441 15.4451V10.5666C26.4498 11.1655 25.4904 11.6608 24.4843 12.0432C21.0171 13.2847 17.3543 13.89 13.672 13.8299C9.99013 13.8888 6.32766 13.2845 2.85984 12.0459C1.85322 11.6636 0.893697 11.1672 0 10.5666V15.4382C0 16.0887 0.909823 17.192 3.46501 18.191Z" fill="white"/>
<path d="M3.46501 27.3921C4.62268 27.8336 5.81647 28.1739 7.03294 28.409C9.22042 28.8322 11.444 29.0404 13.672 29.0306C15.9 29.0408 18.1236 28.8331 20.3111 28.4104C21.5276 28.1752 22.7214 27.835 23.8791 27.3935C26.437 26.3959 27.3441 25.2871 27.3441 24.6489V19.9969C26.6049 20.4417 25.8279 20.8206 25.0222 21.129C21.3798 22.4187 17.5353 23.0429 13.672 22.972C9.80837 23.0407 5.96382 22.4141 2.3219 21.1222C1.51654 20.8129 0.739638 20.4341 0 19.9901V24.6462C0 25.2857 0.909823 26.3904 3.46501 27.3921Z" fill="white"/>
<path d="M13.672 38.4238C21.2196 38.4238 27.3441 36.0306 27.3441 33.0802V29.187C26.6716 29.5924 25.9671 29.9421 25.2376 30.2327L25.0222 30.3191C21.3805 31.6126 17.536 32.2406 13.672 32.1731C9.80797 32.2425 5.96305 31.6145 2.3219 30.3191C2.2478 30.2917 2.17644 30.2601 2.10645 30.2327C1.37698 29.9421 0.672486 29.5924 0 29.187V33.0802C0 36.0306 6.12449 38.4238 13.672 38.4238Z" fill="white"/>
<path d="M13.672 10.6873C21.2229 10.6873 27.3441 8.29489 27.3441 5.34367C27.3441 2.39244 21.2229 0 13.672 0C6.12118 0 0 2.39244 0 5.34367C0 8.29489 6.12118 10.6873 13.672 10.6873Z" fill="white"/>
</svg>
