<svg width="28" height="41" viewBox="0 0 28 41" fill="none" xmlns="http://www.w3.org/2000/svg">
<path d="M24.2165 14.2972C25.5838 13.452 26.6381 12.1838 27.2195 10.6851C27.8008 9.18639 27.8775 7.53897 27.4379 5.99275C26.9983 4.44653 26.0663 3.08589 24.7835 2.11724C23.5006 1.14858 21.9368 0.624786 20.3293 0.625306H7.76578C6.15827 0.624786 4.59446 1.14858 3.31158 2.11724C2.0287 3.08589 1.09676 4.44653 0.657139 5.99275C0.217517 7.53897 0.294206 9.18639 0.87557 10.6851C1.45693 12.1838 2.51125 13.452 3.87857 14.2972C2.80759 14.9588 1.92355 15.8833 1.31043 16.9827C0.697308 18.0822 0.37547 19.3201 0.375488 20.579C0.375506 21.8378 0.69738 23.0758 1.31053 24.1752C1.92368 25.2747 2.80775 26.1991 3.87875 26.8606C2.78396 27.5382 1.88521 28.4901 1.27156 29.6219C0.657906 30.7537 0.350655 32.0263 0.380249 33.3135C0.409843 34.6006 0.775254 35.8577 1.44027 36.9601C2.10529 38.0626 3.04684 38.9721 4.17162 39.5987C5.29639 40.2252 6.56535 40.5469 7.85276 40.532C9.14017 40.5171 10.4013 40.166 11.5113 39.5136C12.6213 38.8612 13.5415 37.9301 14.1808 36.8126C14.8201 35.695 15.1563 34.4298 15.1561 33.1423V25.8499C15.8975 26.5783 16.7843 27.1421 17.7585 27.5043C18.7327 27.8665 19.7724 28.0191 20.8096 27.952C21.8468 27.8849 22.8582 27.5997 23.7776 27.115C24.697 26.6303 25.5038 25.957 26.1452 25.1392C26.7867 24.3213 27.2483 23.3773 27.4999 22.3688C27.7515 21.3604 27.7874 20.3102 27.6054 19.2869C27.4233 18.2636 27.0274 17.2902 26.4434 16.4304C25.8594 15.5706 25.1006 14.8437 24.2165 14.2972ZM25.5025 8.01559C25.5009 9.38651 24.9559 10.7009 23.9868 11.6706C23.0178 12.6403 21.7038 13.1862 20.3329 13.1887L20.3293 13.1886L20.3221 13.1888L15.1561 13.1886V2.84239H20.3293C21.7008 2.84393 23.0157 3.38946 23.9856 4.35929C24.9554 5.32912 25.5009 6.64405 25.5025 8.01559ZM2.59257 8.01559C2.59411 6.64405 3.13964 5.32912 4.10947 4.35929C5.0793 3.38946 6.39423 2.84393 7.76578 2.84239H12.939V13.1886H7.76578L7.76227 13.1887C6.39134 13.1862 5.07732 12.6403 4.10825 11.6706C3.13918 10.7009 2.59413 9.38652 2.59257 8.01559ZM2.59257 20.5789C2.59412 19.208 3.13917 17.8936 4.10825 16.9239C5.07732 15.9542 6.39134 15.4082 7.76227 15.4058L7.76578 15.4059L12.939 15.4057V25.7519L7.76578 25.7521C6.39423 25.7506 5.0793 25.205 4.10947 24.2352C3.13964 23.2654 2.59411 21.9504 2.59257 20.5789ZM7.76578 38.3154C7.08607 38.316 6.41291 38.1826 5.78477 37.9229C5.15663 37.6632 4.58584 37.2822 4.10501 36.8018C3.62418 36.3214 3.24274 35.7509 2.98249 35.123C2.72224 34.4951 2.58829 33.822 2.58829 33.1423C2.58829 32.4626 2.72224 31.7895 2.98249 31.1616C3.24274 30.5337 3.62418 29.9632 4.10501 29.4828C4.58584 29.0024 5.15663 28.6214 5.78477 28.3617C6.41291 28.102 7.08607 27.9686 7.76578 27.9692L12.939 27.9691V33.1423C12.9374 34.5138 12.3919 35.8287 11.4221 36.7986C10.4522 37.7684 9.13731 38.3139 7.76578 38.3154ZM20.3293 25.7521C18.9581 25.7517 17.6433 25.207 16.6735 24.2377C15.7038 23.2683 15.1586 21.9537 15.1576 20.5825C15.1567 19.2114 15.7001 17.896 16.6685 16.9254C17.6369 15.9547 18.951 15.4082 20.3221 15.4059H20.3293L20.3328 15.4058C21.7039 15.4076 23.0182 15.9537 23.987 16.924C24.9557 17.8943 25.4996 19.2096 25.4991 20.5807C25.4987 21.9518 24.9539 23.2667 23.9845 24.2364C23.0151 25.2061 21.7004 25.7512 20.3293 25.7521Z" fill="white"/>
</svg>
