<svg width="19" height="22" viewBox="0 0 19 22" fill="none" xmlns="http://www.w3.org/2000/svg">
<path d="M18.974 18.8676L16.7084 14.4066C16.6763 14.3424 16.6161 14.2962 16.5458 14.2802C16.4756 14.2641 16.4033 14.2822 16.3471 14.3263C15.0789 15.3317 12.8995 16.0903 11.276 16.0903C8.13946 16.0903 5.94807 13.9671 5.94807 10.9269C5.94807 7.88661 8.13946 5.76344 11.276 5.76344C12.9738 5.76344 14.7156 6.30928 15.8194 7.19026C15.8735 7.2344 15.9478 7.25046 16.016 7.23842C16.0843 7.22437 16.1445 7.18022 16.1786 7.11801L18.6911 2.54057C18.7472 2.43822 18.7212 2.30979 18.6288 2.23755C16.7284 0.732471 14.3163 0 11.254 0C4.73196 0 0 4.59751 0 10.9289C0 17.2622 4.73196 21.8577 11.254 21.8577C14.238 21.8577 16.8167 20.9507 18.9158 19.1586C19.0001 19.0864 19.0242 18.966 18.974 18.8676Z" fill="white"/>
</svg>
