<svg width="28" height="21" viewBox="0 0 28 21" fill="none" xmlns="http://www.w3.org/2000/svg">
<path d="M23.5427 11.7869C22.6841 11.788 21.837 11.9843 21.0654 12.361C20.8238 11.9601 20.6373 11.5286 20.5108 11.0779C20.4381 10.7247 20.4213 10.3623 20.461 10.0038C20.5444 9.60939 20.6527 9.22063 20.7851 8.83985C20.7803 8.79005 20.7256 8.55472 20.1758 8.54691C19.6261 8.5391 19.1525 8.65139 19.1017 8.79689C19.0062 9.06264 18.9296 9.33477 18.8722 9.61127C18.4172 10.7337 17.8572 11.8107 17.1995 12.8278C16.8311 12.2237 16.6795 11.5121 16.7699 10.8104C16.8534 10.416 16.9616 10.0272 17.0941 9.64642C17.0892 9.59662 17.0345 9.36129 16.4848 9.35348C15.935 9.34567 15.4614 9.45796 15.4106 9.60346C15.3599 9.74895 15.2954 10.0917 15.1812 10.4178C15.0669 10.744 13.7331 13.7242 13.3835 14.4927C13.2038 14.8833 13.0485 15.2016 12.9392 15.4164C12.934 15.4304 12.9274 15.4438 12.9196 15.4564C12.822 15.641 12.7702 15.7416 12.7702 15.7416V15.7465C12.6951 15.8812 12.615 16.0062 12.575 16.0062C12.5051 15.7272 12.5085 15.4349 12.5847 15.1576C12.78 14.1236 13.2585 12.5163 13.2536 12.4606C13.2536 12.4304 13.3434 12.1511 12.9441 12.0066C12.8514 11.9625 12.7474 11.9482 12.6463 11.9657C12.5453 11.9832 12.4521 12.0316 12.3797 12.1042C12.3445 12.1042 12.3201 12.1892 12.3201 12.1892C12.3201 12.1892 12.7546 10.3817 11.4911 10.3817C10.999 10.4807 10.5317 10.6771 10.1167 10.9593C9.70163 11.2415 9.34722 11.6039 9.07429 12.0251C8.73448 12.2097 8.01091 12.6042 7.23656 13.0289C6.94362 13.194 6.63701 13.359 6.35285 13.5172C6.33332 13.4976 6.31282 13.4722 6.29329 13.4527C4.75534 11.8142 1.92845 10.658 2.05051 8.46586C2.09542 7.66711 2.36981 5.56964 7.47873 3.02202C11.6834 0.949937 15.0298 1.5241 15.6089 2.79743C16.4379 4.61562 13.816 7.9913 9.47171 8.48051C8.9911 8.57802 8.49472 8.56625 8.01927 8.44608C7.54381 8.3259 7.10145 8.1004 6.72489 7.78624C6.49542 7.53626 6.46027 7.52161 6.37531 7.57141C6.23568 7.6466 6.32551 7.87119 6.37531 8.00106C6.54104 8.30099 6.76521 8.56465 7.03456 8.77648C7.30391 8.9883 7.61299 9.14399 7.94353 9.23435C9.65259 9.60367 11.4345 9.42709 13.0378 8.72951C15.6743 7.71105 17.7249 4.87927 17.1234 2.50741C16.5189 0.100404 12.5242 -0.69347 8.74326 0.652112C6.37507 1.44899 4.18687 2.70418 2.30341 4.34612C0.220592 6.29418 -0.10848 7.98641 0.0262736 8.69631C0.514511 11.2137 3.98197 12.8512 5.36954 14.0669C5.29924 14.107 5.23479 14.1421 5.18011 14.1714C4.48583 14.5161 1.83959 15.8998 1.17656 17.3625C0.427605 19.0225 1.29667 20.2089 1.87083 20.3691C2.736 20.5762 3.64424 20.508 4.46876 20.174C5.29328 19.84 5.99293 19.2568 6.47003 18.506C6.8763 17.8832 7.12603 17.1714 7.19795 16.4313C7.26987 15.6912 7.16185 14.9447 6.88308 14.2554C6.87837 14.2442 6.87176 14.234 6.86355 14.2251L7.40745 13.9058C7.76191 13.6959 8.11148 13.5015 8.41126 13.3414C8.20798 13.9277 8.08865 14.5399 8.0568 15.1596C7.98778 16.1095 8.27848 17.0506 8.87118 17.7961C8.96137 17.8737 9.06607 17.9327 9.17921 17.9696C9.29235 18.0064 9.41169 18.0205 9.5303 18.0109C10.1162 18.0109 10.3847 17.5227 10.6786 16.9426C11.038 16.2337 11.3622 15.4096 11.3622 15.4096C11.3622 15.4096 10.9579 17.6369 12.0564 17.6369C12.4558 17.6369 12.8601 17.1174 13.0407 16.8557V16.8606C13.0407 16.8606 13.0505 16.846 13.071 16.8108L13.1354 16.7063V16.6966C13.2956 16.4173 13.6549 15.7826 14.1891 14.729C14.8785 13.3707 15.5425 11.6726 15.5425 11.6726C15.6065 12.0458 15.6949 12.4144 15.8071 12.776C15.9679 13.2144 16.1581 13.6414 16.3764 14.0542C16.2162 14.2788 16.1166 14.4038 16.1166 14.4038L16.1215 14.4087C15.9916 14.5786 15.852 14.7632 15.6967 14.9428C15.2348 15.4507 14.8062 15.9879 14.4137 16.5511C14.3553 16.6457 14.3353 16.759 14.3576 16.8678C14.3799 16.9767 14.4429 17.0729 14.5338 17.137C14.7393 17.2439 14.9736 17.2826 15.2026 17.2473C15.5478 17.2278 15.8871 17.1502 16.2065 17.0178C16.515 16.9092 16.8062 16.7563 17.0706 16.5638C17.3433 16.3749 17.5628 16.119 17.708 15.8208C17.8532 15.5225 17.9192 15.1919 17.8997 14.8608C17.869 14.4437 17.7624 14.0357 17.5852 13.6568C17.635 13.5865 17.6829 13.5172 17.7298 13.4469C18.2849 12.6182 18.7853 11.7541 19.2277 10.8602C19.2917 11.2334 19.3801 11.602 19.4923 11.9636C19.6249 12.3424 19.7882 12.7098 19.9805 13.0621C19.3419 13.5535 18.8388 14.1994 18.5188 14.9389C18.2043 15.848 18.4484 16.2572 18.9093 16.3519C19.1615 16.3693 19.4137 16.3176 19.6388 16.2025C19.9697 16.0937 20.2814 15.9336 20.5625 15.7279C20.8589 15.553 21.1072 15.3071 21.285 15.0124C21.4628 14.7177 21.5645 14.3834 21.581 14.0396C21.5588 13.6964 21.4813 13.3591 21.3515 13.0406C22.1943 12.7114 23.1081 12.6064 24.0036 12.736C26.3804 13.0153 26.85 14.4985 26.7602 15.1235C26.7181 15.345 26.629 15.555 26.499 15.7392C26.3689 15.9235 26.201 16.0778 26.0064 16.1917C25.8413 16.2962 25.7867 16.3314 25.8013 16.4066C25.8208 16.5169 25.8989 16.511 26.0405 16.4915C26.3987 16.3802 26.7148 16.1629 26.947 15.8683C27.1792 15.5737 27.3166 15.2156 27.3412 14.8413C27.4164 13.3766 26.0181 11.7703 23.5456 11.7849L23.5427 11.7869ZM5.20452 17.966C4.41553 18.8253 3.31699 19.1495 2.84243 18.8751C2.33271 18.5821 2.53288 17.3127 3.50155 16.4027C4.07615 15.8854 4.69721 15.4222 5.35685 15.019C5.47207 14.9487 5.64198 14.8491 5.84509 14.726L5.89977 14.6958L6.01988 14.6206C6.19293 15.2004 6.20862 15.8158 6.06534 16.4037C5.92206 16.9916 5.62496 17.5308 5.20452 17.966ZM10.9472 14.0601C10.6728 14.729 10.0986 16.4427 9.74903 16.347C9.44926 16.2669 9.2608 14.9682 9.68947 13.6851C9.9059 13.0675 10.2212 12.489 10.623 11.9724C11.0526 11.4929 11.5272 11.3328 11.6414 11.5281C11.5372 12.4019 11.3032 13.2553 10.9472 14.0601ZM15.686 16.3275C15.5708 16.387 15.4614 16.4251 15.4116 16.3978C15.3765 16.3782 15.4614 16.3001 15.4614 16.3001C15.4614 16.3001 16.0561 15.6605 16.2904 15.3715C16.4252 15.2016 16.5834 15.0024 16.7552 14.7768V14.8413C16.7552 15.6049 16.016 16.1195 15.687 16.3294L15.686 16.3275ZM19.3419 15.4936C19.257 15.434 19.2716 15.2338 19.5567 14.6098C19.755 14.2091 20.032 13.8524 20.3711 13.5611C20.4231 13.7089 20.4502 13.8643 20.4512 14.021C20.455 14.3545 20.3484 14.6799 20.1479 14.9465C19.9474 15.213 19.6644 15.4057 19.3429 15.4945L19.3419 15.4936Z" fill="white"/>
</svg>
