<svg width="28" height="28" viewBox="0 0 28 28" fill="none" xmlns="http://www.w3.org/2000/svg">
<path d="M0 0H27.3441V27.3441H0V0ZM2.39517 23.9261H12.6492V22.2171H2.39517V23.9261ZM3.76067 7.85886H4.10332C4.89972 7.74863 5.46967 7.06247 5.46967 6.14986V3.41801H4.21441V6.26607C4.21441 6.71981 4.10418 6.83602 3.76067 6.83602C3.41716 6.83602 3.19071 6.71981 3.0745 6.49337L2.2781 7.17953C2.62076 7.74949 3.19071 7.97593 3.76067 7.85972V7.85886ZM9.45764 7.85886V6.83602H7.06247V6.14986H9.11413V5.12702H7.06247V4.44085H9.45764V3.41801H5.81318V7.97507H9.45764V7.85886ZM10.9402 7.85886H12.1903V4.44085H13.5567V3.41801H9.68493V4.44085H11.0513V7.85886H10.9402ZM6.38228 12.1895C6.38228 11.6195 6.03963 11.1666 5.46967 11.1666C5.92341 11.0504 6.14986 10.5967 6.14986 10.1378C6.14986 9.91138 6.03963 9.56787 5.92341 9.34142C5.58076 8.99877 5.12702 8.88768 4.67328 8.88768H2.39432V13.3285H4.67328C5.69612 13.3285 6.38228 12.8748 6.38228 12.1895ZM3.53422 9.91138H4.33062C4.67328 9.91138 4.90057 10.0276 4.90057 10.254C4.90057 10.5967 4.67413 10.7078 4.33062 10.7078H3.53422V9.91138ZM3.53422 12.3057V11.5093H4.44085C4.89972 11.5093 5.12702 11.6195 5.0108 11.8468C5.0108 12.0793 4.78436 12.3057 4.44085 12.3057H3.53422ZM11.963 8.88768L10.254 12.8756L9.56787 11.8468C10.1378 11.6204 10.4805 11.0504 10.4805 10.4805C10.4805 10.1378 10.3702 9.68408 10.1378 9.45764C9.68408 8.99877 9.11498 8.88768 8.66124 8.88768H6.49337V13.3285H7.74863V11.9622H8.31858L9.23119 13.3285H11.2777L11.6204 12.5321H13.3294L13.672 13.3285H15.0384L13.2192 8.77147H11.9639L11.963 8.88768ZM8.54503 11.0504H7.74863V10.0276H8.54503C8.88768 10.0276 9.23119 10.1378 9.23119 10.5975C9.23119 10.824 8.99877 11.0504 8.54503 11.0504ZM12.9859 11.6204H12.0793L12.533 10.3702L12.9859 11.6204ZM15.1546 13.3294H16.4047V8.88854H15.1546V13.3294ZM19.7117 11.2769L17.8865 8.88768H16.7474V13.3285H18.0027V10.9393L19.9381 13.4447H20.961V8.88768H19.7108L19.7117 11.2769ZM23.2399 10.5967C22.67 10.4805 22.4435 10.3702 22.4435 10.1378C22.4435 10.0276 22.5597 9.91138 22.9024 9.91138C23.3561 9.91138 23.809 10.1378 24.1525 10.3702L24.8387 9.45764C24.2687 8.99877 23.6996 8.88768 23.0135 8.88768C21.9906 8.88768 21.3045 9.56787 21.3045 10.3702C21.3045 11.2769 21.9906 11.5093 23.0135 11.7366C23.5834 11.8468 23.8099 11.963 23.8099 12.1903C23.8099 12.4176 23.5834 12.533 23.2399 12.533C22.67 12.533 22.2171 12.3065 21.7633 11.963L21.0772 12.7594C21.6471 13.2183 22.4435 13.4456 23.1288 13.4456C24.2679 13.4456 24.9481 12.8756 24.9481 11.963C24.9481 11.1666 24.2679 10.824 23.2391 10.5967H23.2399Z" fill="white"/>
</svg>
