<svg width="28" height="27" viewBox="0 0 28 27" fill="none" xmlns="http://www.w3.org/2000/svg">
<path fill-rule="evenodd" clip-rule="evenodd" d="M6.53467 4.47255C6.27483 4.47172 6.01598 4.5047 5.76465 4.57064V4.60497H5.80192C5.98193 4.8767 6.18263 5.13414 6.40225 5.375C6.55331 5.67516 6.68475 5.97434 6.83483 6.2745C6.85347 6.25586 6.87211 6.23624 6.87211 6.23624C7.01145 6.12563 7.12052 5.98153 7.18913 5.81738C7.25774 5.65323 7.28366 5.47438 7.26447 5.2975C7.18233 5.17083 7.10701 5.03986 7.03886 4.90514C6.92606 4.71778 6.68181 4.62361 6.53173 4.47353" fill="white"/>
<path fill-rule="evenodd" clip-rule="evenodd" d="M25.1674 20.8421C23.9301 20.7552 22.6885 20.9345 21.5263 21.3679C21.2447 21.4807 20.7955 21.4807 20.7562 21.8368C20.9073 21.9869 20.925 22.2292 21.0574 22.4381C21.3143 22.8731 21.6445 23.2604 22.0334 23.5828C22.4258 23.883 22.8181 24.1822 23.235 24.445C23.9658 24.8973 24.7927 25.1592 25.5049 25.6094C25.9188 25.8723 26.3308 26.2097 26.7447 26.4922C26.9507 26.6423 27.0812 26.8846 27.3441 26.9827V26.9258C27.2668 26.7173 27.1713 26.5161 27.0586 26.3245C26.8713 26.1381 26.6829 25.9684 26.4946 25.7811C25.9444 25.0535 25.2861 24.4144 24.5426 23.8859C23.9413 23.472 22.6268 22.905 22.3846 22.2184L22.3463 22.1801C22.7863 22.1178 23.2199 22.0167 23.6421 21.878C24.2797 21.7093 24.8614 21.7475 25.5176 21.5837C25.8188 21.5082 26.3632 21.3208 26.3632 21.3208V21.0265C26.0277 20.693 25.7874 20.2467 25.4342 19.9318C24.4735 19.0932 23.4497 18.3298 22.3718 17.6483C21.796 17.2765 21.0535 17.0371 20.4404 16.7203C20.2187 16.6085 19.8518 16.5536 19.7174 16.3672C19.4125 15.9199 19.1573 15.4406 18.9562 14.938C18.4187 13.9178 17.8978 12.7868 17.4348 11.7078C17.1608 10.9847 16.8447 10.2782 16.4883 9.59197C14.768 6.66732 12.2851 4.26538 9.30498 2.64314C8.55304 2.27917 7.75359 2.02292 6.93017 1.88194C6.46522 1.86232 6.00222 1.82603 5.53825 1.80837C5.23874 1.61216 4.95385 1.39447 4.68583 1.15704C3.62448 0.485114 0.89752 -0.9588 0.116708 0.953012C-0.38356 2.16052 0.860245 3.34744 1.28695 3.96051C1.64674 4.39279 1.96375 4.85894 2.23353 5.35244C2.36399 5.66829 2.40127 6.00279 2.52781 6.33336C2.8001 7.18195 3.12341 8.01333 3.49598 8.82293C3.69524 9.22307 3.92479 9.6074 4.18262 9.97257C4.3327 10.1776 4.59166 10.2668 4.64757 10.6053C4.44186 11.0474 4.29795 11.5158 4.21989 11.9972C3.89565 13.0212 3.77631 14.099 3.86872 15.1691C3.96112 16.2392 4.26344 17.2806 4.75842 18.2339C5.05269 18.6978 5.76092 19.719 6.70751 19.3286C7.54227 18.9951 7.35687 17.9366 7.59818 17.0097C7.65311 16.7851 7.61682 16.6379 7.72766 16.4898V16.6703C7.72766 16.6703 8.20145 17.711 8.43687 18.2398C9.07709 19.2099 9.87243 20.0682 10.7911 20.7803C11.1544 21.0976 11.4472 21.4876 11.6504 21.9251V22.2615H12.0692C12.0605 22.1098 12.0184 21.9619 11.946 21.8283C11.8736 21.6947 11.7727 21.5787 11.6504 21.4886C11.3069 21.135 10.9923 20.7545 10.7097 20.3507C9.94184 19.2572 9.26472 18.1027 8.68504 16.8988C8.39076 16.3103 8.14259 15.6648 7.90717 15.0773C7.79927 14.8507 7.79927 14.5083 7.6178 14.3906C7.28272 14.7871 6.99195 15.219 6.75067 15.6786C6.45776 16.6075 6.28727 17.5708 6.24353 18.5438C6.17192 18.5635 6.20724 18.5438 6.17192 18.5811C5.59416 18.4291 5.39504 17.8042 5.17727 17.2745C4.61472 15.6409 4.55798 13.8755 5.01444 12.2091C5.14 11.8118 5.68441 10.5601 5.46664 10.1805C5.35776 9.81856 4.9958 9.61159 4.79766 9.32614C4.5447 8.94213 4.32703 8.53601 4.14731 8.11274C3.71668 7.05727 3.49892 5.88017 3.03004 4.81685C2.77049 4.30546 2.46827 3.81687 2.12661 3.35626C1.74868 2.89615 1.4153 2.40118 1.13098 1.87802C1.04073 1.66908 0.914196 1.32772 1.05839 1.10015C1.06812 1.03694 1.09818 0.978613 1.14403 0.93401C1.18987 0.889408 1.24899 0.860955 1.31245 0.852958C1.54591 0.645003 2.21588 0.909852 2.45032 1.02364C3.08041 1.27169 3.68059 1.58988 4.23951 1.97219C4.49259 2.16249 5.08899 2.64412 5.08899 2.64412H5.26555C5.86588 2.77458 6.54075 2.68041 7.10576 2.85011C8.05708 3.16723 8.96495 3.60222 9.80819 4.14492C12.2935 5.72926 14.314 7.94468 15.6633 10.565C15.8889 10.9957 15.9841 11.391 16.1901 11.8402C16.5824 12.7623 17.0729 13.704 17.4652 14.6005C17.8114 15.4876 18.2591 16.3315 18.7993 17.1156C19.0798 17.508 20.2069 17.7159 20.7141 17.9219C21.1545 18.0743 21.5867 18.2495 22.0089 18.4467C22.6474 18.8391 23.2841 19.2913 23.8854 19.7219C24.1845 19.9475 25.1233 20.4164 25.1802 20.7921" fill="white"/>
</svg>
