<svg width="28" height="61" viewBox="0 0 28 61" fill="none" xmlns="http://www.w3.org/2000/svg">
<path d="M26.7903 24.1873C23.5849 10.0526 16.0116 5.41794 15.1979 3.64181C14.3041 2.38214 13.3417 0 13.3417 0C13.3322 0.0495485 13.3322 0.0800399 13.3226 0.129588V0.16008C13.3226 0.2001 13.3131 0.219157 13.3131 0.259177V0.299197H13.3036V0.358274V0.426879H13.2941C13.2941 0.445936 13.2941 0.476428 13.2845 0.485956V0.545033C13.2845 0.564091 13.2845 0.585053 13.275 0.594582V0.64413C13.275 0.674622 13.275 0.703208 13.2655 0.72417V0.733699C13.2655 0.773719 13.2559 0.823267 13.2464 0.863287V0.882344C13.2369 0.891873 13.2369 0.901402 13.2369 0.912836V0.952856H13.2274V1.01193H13.2178V1.05195H13.1988V1.11103H13.1892V1.16058H13.1797V1.2006H13.1702V1.24062H13.1607V1.28064H13.1511V1.32066H13.1416V1.35115H13.1321V1.39117H13.1225V1.4007V1.43119H13.113C13.1035 1.43119 13.1035 1.44072 13.1035 1.44072V1.45978L13.094 1.47883C13.094 1.49789 13.0844 1.51885 13.0749 1.53791C13.0654 1.54744 13.0654 1.54744 13.0654 1.55697V1.57602H13.0558V1.59508H13.0368V1.64463H13.0177V1.67512H13.0082V1.68465H12.9987V1.70371H12.9891V1.7342H12.9796V1.75325H12.9606V1.78375H12.951V1.8028H12.9415V1.82186H12.932V1.85235H12.9224V1.87141H12.9129V1.88094H12.9034V1.89999H12.8843V1.93049H12.8748V1.94001H12.8653V1.95907H12.8557V1.98956H12.8462V1.99909H12.8367V2.01815H12.8272V2.02768H12.8176V2.05817H12.7986V2.0677H12.789V2.08675H12.7795V2.09628H12.77V2.11534H12.7605V2.12487V2.1344C12.7509 2.1344 12.7509 2.14393 12.7509 2.14393V2.15345H12.7414C12.7319 2.17251 12.7223 2.18395 12.7109 2.203C12.7109 2.203 12.6918 2.22206 12.6918 2.23349C12.6823 2.23349 12.6823 2.24302 12.6823 2.24302V2.25255H12.6728V2.26208H12.6633V2.27161V2.28114H12.6442V2.29066H12.6347V2.30019H12.6251V2.30972V2.32878H12.6156V2.33831H12.6061V2.34784H12.5966V2.36689H12.587V2.34784H12.568V2.35736H12.5584V2.37642H12.5489V2.39548H12.5394V2.40501H12.5299V2.41454H12.5203V2.42406H12.5108V2.44312H12.4917V2.45265H12.4822V2.47171H12.4727V2.48124H12.4632V2.49076H12.4536V2.52126H12.4441V2.53078H12.4346V2.54031H12.425V2.54984H12.4155V2.55937H12.3965V2.57843H12.3869V2.58796H12.3774V2.59748H12.3679V2.61654H12.3583V2.62607H12.3393V2.6356H12.3298V2.64513H12.3202V2.66418H12.3107V2.68324H12.3012V2.69277H12.2916V2.7023H12.2726V2.71183H12.2631V2.72136H12.2535V2.74041H12.244V2.74994H12.2345V2.769H12.2249V2.77853H12.2154V2.78806H12.2059V2.79758H12.1964V2.80711H12.1773V2.81664C12.1678 2.81664 12.1678 2.82617 12.1678 2.82617L12.1582 2.8357L12.1487 2.84523V2.86428H12.1392V2.87381H12.1297V2.88334H12.1201V2.89287H12.1106L12.0915 2.91193V2.92146C12.0725 2.93098 12.0725 2.94051 12.0515 2.96148C12.0515 2.96148 12.0325 2.98053 12.021 2.98053C11.9905 2.99959 11.9524 3.03961 11.9219 3.0701C11.9029 3.07963 11.8819 3.10059 11.8629 3.11012C11.8228 3.15014 11.7828 3.17873 11.7428 3.20922C11.6837 3.26829 11.6227 3.30831 11.5541 3.36739H11.5446C11.4055 3.48745 11.2473 3.62466 11.0777 3.77521H11.0682C10.6413 4.15255 10.1344 4.6385 9.55886 5.21403L9.50931 5.26358C6.05426 8.83678 0.605827 16.29 0.0398311 28.3303C-0.0192459 29.3232 -0.00971896 30.2951 0.0493581 31.2384V31.2575C0.327592 36.0027 1.81595 40.0523 3.68164 43.3473C4.41534 44.6584 5.21955 45.8495 6.03329 46.9205C8.83278 50.6138 11.6913 52.8073 12.4155 53.3428C13.538 55.9326 13.437 60.3996 13.437 60.3996L15.074 60.9447C15.074 60.9447 14.7367 56.6263 15.2036 54.5319C15.3522 53.8859 15.6895 53.3313 16.0878 52.8549C16.3661 52.6662 17.1607 52.0907 18.1136 51.2179C18.1631 51.1684 18.1936 51.1283 18.2337 51.0788C22.0946 47.4751 29.3116 38.6021 26.8398 24.1511L26.7903 24.1873Z" fill="white"/>
</svg>
