<svg width="19" height="26" viewBox="0 0 19 26" fill="none" xmlns="http://www.w3.org/2000/svg">
<path d="M13.8308 15.7493C14.324 15.412 15.0086 15.1201 15.0086 15.1201C15.0086 15.1201 13.0607 15.4724 11.1229 15.6335C8.75216 15.8298 6.2053 15.8701 4.92683 15.6989C1.90181 15.2963 6.58783 14.1839 6.58783 14.1839C6.58783 14.1839 4.7708 14.0631 2.53097 15.1402C-0.111521 16.4187 9.07429 17.0026 13.8308 15.7493ZM9.53232 14.1336C8.57599 11.9843 5.34963 10.0968 9.53232 6.79498C14.7499 2.67773 12.0742 0 12.0742 0C13.1563 4.25316 8.26896 5.54169 6.50226 8.18418C5.2993 9.99114 7.09116 11.929 9.53232 14.1336ZM15.3005 5.26485C15.3055 5.26485 6.48213 7.46945 10.695 12.3216C11.9383 13.751 10.3679 15.0396 10.3679 15.0396C10.3679 15.0396 13.5237 13.4088 12.0742 11.3703C10.7202 9.46768 9.68332 8.52141 15.3005 5.26485ZM14.9935 18.88C14.966 18.9279 14.9321 18.972 14.8928 19.0109C21.3506 17.3146 18.9748 13.0262 15.8894 14.1134C15.7228 14.1747 15.5788 14.2853 15.4767 14.4305C15.6568 14.3653 15.842 14.3148 16.0303 14.2795C17.5907 13.9524 19.8305 16.3684 14.9935 18.88ZM17.3672 22.0157C17.3672 22.0157 18.097 22.6147 16.5669 23.0828C13.6526 23.9636 4.44665 24.2304 1.88973 23.118C0.96863 22.7204 2.69506 22.1617 3.23866 22.0459C3.80239 21.9251 4.12956 21.9453 4.12956 21.9453C3.10779 21.2255 -2.4792 23.3596 1.29076 23.9687C11.5708 25.6397 20.0349 23.2187 17.3672 22.0157ZM6.1147 19.932C2.15347 21.0393 8.52566 23.3244 13.569 21.1651C13.0772 20.974 12.6023 20.7417 12.1497 20.4705C9.89976 20.8983 8.85786 20.9286 6.81433 20.697C5.12817 20.5058 6.1147 19.932 6.1147 19.932ZM15.1646 24.8243C11.2034 25.5693 6.31603 25.4837 3.42187 25.0055C3.42187 25.0005 4.0158 25.4938 7.066 25.6901C11.7067 25.987 18.8339 25.524 19 23.3294C19 23.3294 18.6779 24.1599 15.1646 24.8243ZM12.9701 17.7676C9.99036 18.3414 8.26393 18.3263 6.0845 18.0998C4.39833 17.9237 5.50063 17.1083 5.50063 17.1083C1.13171 18.5579 7.92669 20.1987 14.0321 18.4119C13.6375 18.2726 13.276 18.0532 12.9701 17.7676Z" fill="white"/>
</svg>
