<svg width="28" height="21" viewBox="0 0 28 21" fill="none" xmlns="http://www.w3.org/2000/svg">
<path d="M26.4108 0C27.0579 0 27.4624 0.527505 27.3131 1.17919L23.1443 19.3866C22.9962 20.0383 22.3502 20.5658 21.7031 20.5658H0.933321C0.286188 20.5658 -0.11827 20.0383 0.0309808 19.3866L4.19975 1.17919C4.34786 0.527505 4.99385 0 5.64099 0H26.4108ZM16.869 10.6469C17.1549 10.198 17.1276 9.61585 16.7664 9.23076L10.3931 2.45067C9.96014 1.98925 9.21161 1.98697 8.72284 2.44612C8.23408 2.90526 8.18964 3.65038 8.62258 4.11066L13.9341 9.76168V9.88701L5.48034 16.0086C4.96765 16.3811 4.87309 17.1217 5.26729 17.664C5.66149 18.2063 6.39635 18.3442 6.90791 17.9716L16.2834 11.2394C16.6024 11.0149 16.7824 10.8224 16.869 10.6469ZM13.6834 15.6588C13.5445 15.6579 13.4067 15.6844 13.278 15.7368C13.1494 15.7891 13.0322 15.8664 12.9334 15.964C12.8346 16.0617 12.756 16.1779 12.7021 16.3059C12.6482 16.434 12.6201 16.5714 12.6193 16.7104C12.6193 17.2914 13.0955 17.762 13.6834 17.762H18.734C18.873 17.7629 19.0107 17.7364 19.1394 17.684C19.2681 17.6316 19.3852 17.5544 19.4841 17.4567C19.5829 17.3591 19.6615 17.2429 19.7154 17.1148C19.7693 16.9868 19.7974 16.8493 19.7982 16.7104C19.7974 16.5714 19.7693 16.434 19.7154 16.3059C19.6615 16.1779 19.5829 16.0617 19.4841 15.964C19.3852 15.8664 19.2681 15.7891 19.1394 15.7368C19.0107 15.6844 18.873 15.6579 18.734 15.6588H13.6834Z" fill="white"/>
</svg>
