<svg width="29" height="29" viewBox="0 0 29 29" fill="none" xmlns="http://www.w3.org/2000/svg">
<path d="M21.2864 8.2831V10.9713C21.2752 11.9761 20.8749 12.9374 20.1697 13.6532C19.4644 14.369 18.5091 14.7834 17.5046 14.8095H11.458C10.6517 14.8255 9.88367 15.1563 9.31805 15.7311C8.75243 16.306 8.43412 17.0793 8.43115 17.8857V23.6501C8.43115 25.2904 9.85777 26.2557 11.458 26.7264C13.4265 27.342 15.5361 27.342 17.5046 26.7264C19.0287 26.2851 20.5315 25.3971 20.5315 23.6501V21.3422H14.4848V20.5731H23.5583C25.3177 20.5731 25.9733 19.3459 26.5852 17.5039C27.2063 15.5001 27.2063 13.3553 26.5852 11.3515C26.1502 9.59997 25.3199 8.28229 23.5583 8.28229L21.2864 8.2831ZM17.8856 22.8806C18.1147 22.8771 18.3396 22.9418 18.5318 23.0666C18.7239 23.1913 18.8746 23.3705 18.9645 23.5812C19.0545 23.7919 19.0797 24.0246 19.0369 24.2497C18.9941 24.4747 18.8853 24.682 18.7243 24.845C18.5633 25.008 18.3574 25.1194 18.1329 25.1649C17.9084 25.2105 17.6754 25.1882 17.4636 25.1008C17.2518 25.0135 17.0708 24.8651 16.9436 24.6745C16.8165 24.4839 16.749 24.2597 16.7497 24.0306C16.7487 23.8805 16.7773 23.7317 16.8339 23.5926C16.8904 23.4536 16.9738 23.327 17.0793 23.2202C17.1848 23.1134 17.3103 23.0285 17.4487 22.9702C17.587 22.9119 17.7355 22.8815 17.8856 22.8806Z" fill="white"/>
<path d="M14.3507 1.8125C13.3812 1.81354 12.4135 1.89615 11.4579 2.05945C8.89611 2.51203 8.43103 3.45933 8.43103 5.20622V7.51363H14.4848V8.28312H6.15915C5.26812 8.26679 4.39998 8.56582 3.70801 9.1274C3.01604 9.68898 2.54476 10.477 2.37737 11.3523C1.80911 13.3638 1.80911 15.4933 2.37737 17.5048C2.80765 19.297 3.83534 20.574 5.59455 20.574H7.67603V17.8078C7.69812 16.8137 8.10429 15.8667 8.80935 15.1656C9.51441 14.4644 10.4636 14.0635 11.4578 14.0469H17.5044C17.9052 14.0439 18.3015 13.9619 18.6706 13.8056C19.0397 13.6494 19.3743 13.4219 19.6554 13.1362C19.9366 12.8505 20.1586 12.5122 20.3089 12.1406C20.4592 11.769 20.5347 11.3715 20.5313 10.9707V5.2064C20.4804 4.40862 20.1484 3.65469 19.5943 3.07856C19.0401 2.50243 18.2996 2.1414 17.5044 2.05963C16.4619 1.88919 15.407 1.80652 14.3507 1.8125ZM11.0768 3.66832C11.3056 3.66478 11.5303 3.72934 11.7222 3.85379C11.9142 3.97825 12.0649 4.15698 12.1551 4.36726C12.2452 4.57755 12.2708 4.8099 12.2286 5.03477C12.1864 5.25964 12.0783 5.46689 11.918 5.63017C11.7577 5.79344 11.5525 5.90538 11.3285 5.95174C11.1044 5.9981 10.8716 5.9768 10.6597 5.89054C10.4478 5.80428 10.2663 5.65696 10.1383 5.4673C10.0103 5.27764 9.94162 5.05422 9.94093 4.82542C9.93868 4.52151 10.057 4.2291 10.2699 4.01223C10.4828 3.79535 10.7729 3.67169 11.0768 3.66832Z" fill="white"/>
</svg>
