<svg width="21" height="24" viewBox="0 0 21 24" fill="none" xmlns="http://www.w3.org/2000/svg">
<path d="M19.5389 4.90103L11.9625 0.402798C11.062 -0.134266 9.93952 -0.134266 9.03902 0.402798L1.46106 4.90103C0.54953 5.45093 -0.00544434 6.43985 4.0278e-05 7.50439V16.4993C-0.00490897 17.5633 0.549996 18.5516 1.46106 19.1012L9.03751 23.5979C9.93809 24.1346 11.0604 24.1346 11.961 23.5979L19.5374 19.1012C20.4495 18.5517 21.0051 17.5627 21 16.4978V7.50439C21.0054 6.43985 20.4505 5.45093 19.5389 4.90103ZM9.303 23.1382L1.72655 18.6415C0.977839 18.1878 0.521809 17.3748 0.524981 16.4993V7.50439C0.521507 6.62887 0.977615 5.81571 1.72655 5.36223L9.303 0.864C10.0404 0.424093 10.9596 0.424093 11.697 0.864L19.2674 5.36223C19.8915 5.74022 20.3172 6.37409 20.431 7.09477C20.1792 6.55923 19.6133 6.41207 18.9533 6.79135L11.7911 11.2274C10.8975 11.7477 10.2391 12.3349 10.2375 13.412V22.2446C10.2375 22.8894 10.497 23.3066 10.8975 23.4295C10.7663 23.4535 10.6333 23.4662 10.5 23.4674C10.0787 23.4671 9.66522 23.3534 9.303 23.1382Z" fill="white"/>
<path d="M17.5324 17.3497L15.6493 18.4759C15.5988 18.4962 15.565 18.5442 15.563 18.5986V19.0936C15.563 19.1541 15.6039 19.1783 15.6538 19.1496L17.5657 17.987C17.6125 17.9519 17.6349 17.893 17.6232 17.8356V17.4012C17.6217 17.3452 17.5778 17.3209 17.5324 17.3497Z" fill="black"/>
<path d="M13.5245 13.2032C13.5851 13.1729 13.635 13.2032 13.6365 13.2895L13.6426 13.9465C13.8691 13.8436 14.1217 13.8129 14.3662 13.8587C14.4131 13.8708 14.4328 13.9344 14.4146 14.01L14.2708 14.5868C14.2599 14.6303 14.2374 14.6701 14.2057 14.7018C14.1946 14.7128 14.1818 14.722 14.1679 14.7291C14.1508 14.7383 14.131 14.7415 14.1119 14.7382C13.8735 14.6854 13.6239 14.7254 13.414 14.8502C13.1071 14.9884 12.9065 15.2903 12.8978 15.6268C12.8978 15.9295 13.0492 16.0128 13.5775 16.0218C14.2754 16.034 14.5781 16.3382 14.5857 17.0421C14.5691 17.7769 14.2303 18.4672 13.6593 18.9298L13.6714 19.5747C13.6703 19.6548 13.6287 19.7289 13.5609 19.7715L13.1794 19.991C13.1188 20.0212 13.0689 19.991 13.0674 19.9062V19.2719C12.7404 19.4082 12.4089 19.44 12.1969 19.3552C12.1576 19.34 12.1394 19.281 12.1561 19.2129L12.2938 18.6301C12.3043 18.584 12.328 18.5419 12.362 18.509C12.3727 18.4987 12.385 18.49 12.3983 18.4832C12.418 18.4744 12.4406 18.4744 12.4603 18.4832C12.7302 18.5564 13.018 18.52 13.2611 18.3818C13.6119 18.2126 13.8399 17.8628 13.853 17.4736C13.853 17.1466 13.6729 17.0103 13.2475 17.0073C12.698 17.0073 12.1879 16.9014 12.1773 16.0991C12.1899 15.3981 12.5153 14.7396 13.0643 14.3037L13.0371 13.6437C13.0368 13.5625 13.0787 13.4869 13.1476 13.4439L13.5245 13.2032Z" fill="black"/>
</svg>
