<svg width="28" height="28" viewBox="0 0 28 28" fill="none" xmlns="http://www.w3.org/2000/svg">
<path d="M2.96044 8.89785L8.55605 24.2238C4.64188 22.3273 1.94606 18.3139 1.94606 13.672C1.94606 11.9686 2.30991 10.3588 2.96044 8.89785ZM21.5886 13.0822C21.5886 11.6323 21.0704 10.6289 20.6238 9.84608C20.0284 8.88132 19.4716 8.05989 19.4716 7.09513C19.4716 6.0146 20.2875 5.01125 21.4397 5.01125C21.4894 5.01125 21.539 5.01676 21.5941 5.02227C19.5047 3.10929 16.7262 1.94055 13.672 1.94055C9.57594 1.94055 5.97049 4.04097 3.87007 7.22744C4.14572 7.23847 4.40482 7.24398 4.62534 7.24398C5.84921 7.24398 7.75117 7.09513 7.75117 7.09513C8.38515 7.05654 8.45682 7.98822 7.82835 8.05989C7.82835 8.05989 7.19436 8.13156 6.48871 8.17015L10.7612 20.8719L13.3302 13.1759L11.5055 8.17015C10.8715 8.13156 10.2761 8.05989 10.2761 8.05989C9.6421 8.0213 9.71928 7.05654 10.3478 7.09513C10.3478 7.09513 12.2828 7.24398 13.435 7.24398C14.6589 7.24398 16.5608 7.09513 16.5608 7.09513C17.1948 7.05654 17.2665 7.98822 16.638 8.05989C16.638 8.05989 16.004 8.13156 15.2984 8.17015L19.5378 20.7782L20.7065 16.8695C21.2027 15.2487 21.5886 14.0855 21.5886 13.0822ZM13.876 14.6974L10.3588 24.9239C11.4117 25.2326 12.5198 25.4035 13.672 25.4035C15.0392 25.4035 16.3458 25.1665 17.5642 24.7365C17.5311 24.6869 17.5035 24.6317 17.4815 24.5766L13.876 14.6974ZM23.9647 8.04335C24.0143 8.41823 24.0418 8.81516 24.0418 9.25068C24.0418 10.4415 23.8213 11.7756 23.1488 13.4515L19.5654 23.8103C23.055 21.776 25.398 17.9997 25.398 13.672C25.398 11.6323 24.8798 9.71377 23.9647 8.04335ZM27.3441 13.672C27.3441 21.2137 21.2082 27.3441 13.672 27.3441C6.13037 27.3441 0 21.2082 0 13.672C0 6.13037 6.13037 0 13.672 0C21.2082 0 27.3441 6.13037 27.3441 13.672ZM26.7156 13.672C26.7156 6.47768 20.8609 0.628473 13.672 0.628473C6.47768 0.628473 0.628473 6.47768 0.628473 13.672C0.628473 20.8664 6.4832 26.7156 13.672 26.7156C20.8664 26.7156 26.7156 20.8664 26.7156 13.672Z" fill="white"/>
</svg>
