<svg width="28" height="28" viewBox="0 0 28 28" fill="none" xmlns="http://www.w3.org/2000/svg">
<path d="M17.8408 17.0858C17.8408 19.6743 15.4165 19.6145 15.1601 19.6145H10.2229V14.6285H15.1601C17.7578 14.6285 17.8408 16.5755 17.8408 17.0858ZM14.7798 12.6222C14.8207 12.6222 17.1261 12.6833 17.1261 10.406C17.1261 9.45874 16.9118 8.21665 14.7798 8.21665H10.2229V12.6222H14.7798ZM27.3441 4.55755V22.7865C27.3405 23.9942 26.8592 25.1514 26.0053 26.0053C25.1514 26.8592 23.9942 27.3405 22.7865 27.3441H4.55755C3.3499 27.3405 2.19273 26.8592 1.33879 26.0053C0.484849 25.1514 0.00354246 23.9942 0 22.7865V4.55755C0.00354246 3.3499 0.484849 2.19273 1.33879 1.33879C2.19273 0.484849 3.3499 0.00354246 4.55755 0H22.7865C23.9942 0.00354246 25.1514 0.484849 26.0053 1.33879C26.8592 2.19273 27.3405 3.3499 27.3441 4.55755ZM20.6332 17.4477C20.6332 16.1312 20.2273 13.8899 17.6394 13.337V13.2924C19.0377 12.6955 19.9185 11.5681 19.9185 9.89636C19.9185 9.46911 20.0405 5.94246 15.1821 5.94246H7.43051V21.893C15.2571 21.893 15.9676 21.9955 17.416 21.5445C18.2833 21.2747 20.6332 20.447 20.6332 17.4477Z" fill="white"/>
</svg>
