<svg width="28" height="32" viewBox="0 0 28 32" fill="none" xmlns="http://www.w3.org/2000/svg">
<path d="M14.0475 31.2276C13.6229 31.2276 13.2266 31.1144 12.8587 30.9163L9.09389 28.6801C8.52776 28.3687 8.81083 28.2555 8.98067 28.1989C9.74494 27.9441 9.88648 27.8875 10.6791 27.4346C10.764 27.378 10.8772 27.4063 10.9621 27.4629L13.8494 29.1896C13.9626 29.2462 14.1041 29.2462 14.1891 29.1896L25.4834 22.6508C25.5966 22.5942 25.6532 22.4809 25.6532 22.3394V9.29011C25.6532 9.14857 25.5966 9.03535 25.4834 8.97873L14.1891 2.46824C14.0758 2.41162 13.9343 2.41162 13.8494 2.46824L2.55509 8.97873C2.44186 9.03535 2.38525 9.17688 2.38525 9.29011V22.3394C2.38525 22.4526 2.44186 22.5942 2.55509 22.6508L5.6405 24.4341C7.31058 25.2833 8.35792 24.2926 8.35792 23.3018V10.4224C8.35792 10.2525 8.49946 10.0827 8.6976 10.0827H10.1412C10.3111 10.0827 10.4809 10.2242 10.4809 10.4224V23.3018C10.4809 25.538 9.26373 26.8401 7.14074 26.8401C6.48969 26.8401 5.98018 26.8401 4.53654 26.1325L1.56436 24.4341C0.828392 24.0095 0.375488 23.2169 0.375488 22.3677V9.31841C0.375488 8.46922 0.828392 7.67663 1.56436 7.25204L12.8587 0.713234C13.5663 0.316943 14.5287 0.316943 15.2364 0.713234L26.5307 7.25204C27.2667 7.67663 27.7196 8.46922 27.7196 9.31841V22.3677C27.7196 23.2169 27.2667 24.0095 26.5307 24.4341L15.2364 30.9729C14.8684 31.1427 14.4438 31.2276 14.0475 31.2276ZM17.5292 22.2545C12.5756 22.2545 11.5566 19.99 11.5566 18.0651C11.5566 17.8953 11.6981 17.7254 11.8962 17.7254H13.3682C13.538 17.7254 13.6795 17.8387 13.6795 18.0085C13.906 19.5088 14.557 20.2447 17.5575 20.2447C19.9353 20.2447 20.9543 19.7069 20.9543 18.4331C20.9543 17.6971 20.6713 17.1593 16.9631 16.7913C13.8777 16.48 11.9529 15.8006 11.9529 13.3379C11.9529 11.0451 13.8777 9.6864 17.1046 9.6864C20.7279 9.6864 22.5112 10.9319 22.7376 13.6493C22.7376 13.7342 22.7093 13.8191 22.6527 13.9041C22.5961 13.9607 22.5112 14.0173 22.4263 14.0173H20.9543C20.8128 14.0173 20.6713 13.9041 20.6429 13.7625C20.3033 12.2057 19.4258 11.6962 17.1046 11.6962C14.5004 11.6962 14.1891 12.602 14.1891 13.2813C14.1891 14.1022 14.557 14.357 18.0671 14.8099C21.5488 15.2628 23.1905 15.9138 23.1905 18.3482C23.1622 20.8392 21.1242 22.2545 17.5292 22.2545Z" fill="white"/>
</svg>
