<svg width="28" height="25" viewBox="0 0 28 25" fill="none" xmlns="http://www.w3.org/2000/svg">
<path d="M22.8578 8.30133C22.5742 8.20369 22.2802 8.11131 21.9776 8.02395C22.0273 7.82093 22.073 7.62055 22.1136 7.42357C22.7799 4.18917 22.3442 1.58351 20.8566 0.725612C19.4301 -0.0969954 17.0972 0.760705 14.7411 2.81116C14.5145 3.00833 14.2873 3.21709 14.0602 3.43587C13.9089 3.29112 13.7578 3.15123 13.6071 3.01744C11.1378 0.824952 8.66274 -0.098991 7.17654 0.761386C5.75142 1.58638 5.32938 4.03595 5.92917 7.10122C5.98709 7.39729 6.05479 7.69964 6.13135 8.00706C5.78106 8.10649 5.44289 8.2125 5.11932 8.32527C2.22435 9.33459 0.375488 10.9164 0.375488 12.5572C0.375488 14.2518 2.36024 15.9516 5.37557 16.9822C5.61353 17.0635 5.86045 17.1404 6.1149 17.2134C6.03231 17.5459 5.96047 17.8717 5.90016 18.1895C5.32826 21.2016 5.77488 23.5933 7.1962 24.4131C8.6643 25.2597 11.1282 24.3895 13.5274 22.2923C13.717 22.1265 13.9073 21.9507 14.098 21.7664C14.3451 22.0044 14.5918 22.2296 14.8372 22.4408C17.1611 24.4406 19.4563 25.2481 20.8763 24.4261C22.343 23.577 22.8196 21.0078 22.2008 17.8818C22.1535 17.6431 22.0985 17.3992 22.0368 17.151C22.2098 17.0998 22.3797 17.047 22.5453 16.9921C25.68 15.9535 27.7196 14.2745 27.7196 12.5572C27.7196 10.9105 25.8111 9.31799 22.8578 8.30133ZM22.1779 15.8833C22.0284 15.9328 21.875 15.9807 21.7186 16.0271C21.3726 14.9315 20.9055 13.7665 20.334 12.5629C20.8794 11.388 21.3284 10.2379 21.6648 9.14944C21.9445 9.23038 22.216 9.31575 22.4776 9.40584C25.008 10.2769 26.5514 11.5648 26.5514 12.5572C26.5514 13.6143 24.8845 14.9865 22.1779 15.8833ZM21.0549 18.1087C21.3285 19.4909 21.3676 20.7407 21.1863 21.7176C21.0235 22.5954 20.6959 23.1807 20.291 23.4151C19.4293 23.9139 17.5864 23.2656 15.599 21.5553C15.3712 21.3593 15.1417 21.1499 14.9115 20.9284C15.6819 20.0857 16.452 19.1061 17.2035 18.0181C18.5254 17.9008 19.7743 17.7091 20.9068 17.4473C20.9626 17.6723 21.0122 17.8929 21.0549 18.1087ZM9.69771 23.3289C8.85578 23.6263 8.18522 23.6348 7.77988 23.4011C6.91736 22.9036 6.55879 20.9833 7.0479 18.4074C7.10392 18.1124 7.1706 17.8093 7.24745 17.4996C8.36759 17.7473 9.60732 17.9255 10.9324 18.0329C11.689 19.0975 12.4813 20.0761 13.2797 20.9329C13.1052 21.1013 12.9315 21.2616 12.7587 21.4127C11.6978 22.3401 10.6346 22.998 9.69771 23.3289ZM5.75337 15.8768C4.42004 15.4211 3.31893 14.8288 2.56418 14.1825C1.88598 13.6017 1.54357 13.0251 1.54357 12.5572C1.54357 11.5615 3.02802 10.2915 5.50382 9.42833C5.80423 9.32359 6.1187 9.22488 6.44505 9.13216C6.78721 10.2452 7.23607 11.4089 7.77774 12.5856C7.22906 13.7799 6.77383 14.9621 6.4283 16.0882C6.19565 16.0213 5.97025 15.9509 5.75337 15.8768ZM7.07554 6.87689C6.56166 4.25064 6.90295 2.26949 7.76177 1.77235C8.67656 1.24275 10.6994 1.99785 12.8315 3.89095C12.9677 4.01195 13.1046 4.1386 13.2418 4.26962C12.4473 5.1227 11.6623 6.0939 10.9124 7.15223C9.62635 7.27143 8.39534 7.4629 7.26352 7.71931C7.19236 7.43307 7.12933 7.15184 7.07554 6.87689ZM18.8705 9.78938C18.6 9.32203 18.3222 8.86573 18.039 8.42189C18.9115 8.53218 19.7474 8.67858 20.5324 8.85775C20.2967 9.61304 20.003 10.4027 19.6572 11.2123C19.4092 10.7414 19.1468 10.2666 18.8705 9.78938ZM14.0606 5.10445C14.5994 5.68817 15.139 6.33989 15.6697 7.047C15.1349 7.02174 14.5934 7.0086 14.0475 7.0086C13.5068 7.0086 12.9693 7.02145 12.4378 7.04627C12.9691 6.34573 13.5134 5.69489 14.0606 5.10445ZM9.21979 9.79746C8.94952 10.2661 8.69204 10.7383 8.4479 11.2114C8.10773 10.4047 7.81672 9.61139 7.57901 8.84538C8.35917 8.6708 9.19113 8.52804 10.058 8.41984C9.77086 8.86777 9.4908 9.32753 9.21979 9.79746ZM10.083 16.7779C9.18733 16.678 8.34287 16.5426 7.5629 16.3728C7.80441 15.5931 8.10184 14.7829 8.44922 13.9588C8.69399 14.4315 8.95249 14.9039 9.22442 15.3736C9.50141 15.8521 9.78843 16.3208 10.083 16.7779ZM14.0929 20.0923C13.5393 19.495 12.987 18.8342 12.4477 18.1235C12.9712 18.144 13.505 18.1545 14.0475 18.1545C14.6049 18.1545 15.1558 18.142 15.6981 18.1178C15.1657 18.8414 14.628 19.5032 14.0929 20.0923ZM19.6683 13.9168C20.0338 14.7498 20.3419 15.5558 20.5865 16.3222C19.7937 16.5031 18.9377 16.6487 18.0358 16.757C18.3197 16.3072 18.5999 15.843 18.8752 15.3656C19.1538 14.8826 19.4183 14.3988 19.6683 13.9168ZM17.8634 14.782C17.4359 15.5231 16.9971 16.2306 16.5516 16.8985C15.7402 16.9565 14.9019 16.9864 14.0475 16.9864C13.1966 16.9864 12.3689 16.9599 11.5718 16.9082C11.1084 16.2316 10.66 15.522 10.2353 14.7884C9.8117 14.0568 9.42193 13.3189 9.06867 12.5853C9.42183 11.8499 9.81067 11.1112 10.2318 10.3809L10.2317 10.381C10.654 9.64877 11.0984 8.94263 11.5576 8.27027C12.3708 8.2088 13.2047 8.17673 14.0475 8.17673C14.894 8.17673 15.7291 8.20905 16.542 8.27105C16.9942 8.93849 17.4356 9.64234 17.8595 10.3747C18.2883 11.1153 18.6821 11.849 19.0383 12.5687C18.6832 13.3006 18.2902 14.0418 17.8634 14.782ZM20.2731 1.7376C21.1888 2.26565 21.5448 4.39525 20.9695 7.18781C20.9328 7.366 20.8915 7.54749 20.8466 7.73143C19.7122 7.46967 18.4803 7.27488 17.1905 7.15388C16.4392 6.08392 15.6606 5.11121 14.879 4.26909C15.0892 4.06695 15.299 3.87421 15.5079 3.69232C17.5267 1.9355 19.4134 1.24188 20.2731 1.7376ZM14.0475 10.1155C15.396 10.1155 16.4893 11.2087 16.4893 12.5572C16.4893 13.9057 15.396 14.999 14.0475 14.999C12.699 14.999 11.6058 13.9057 11.6058 12.5572C11.6058 11.2087 12.699 10.1155 14.0475 10.1155Z" fill="white"/>
</svg>
