<svg width="28" height="28" viewBox="0 0 28 28" fill="none" xmlns="http://www.w3.org/2000/svg">
<path d="M27.2038 13.079L15.265 1.14105C14.5779 0.453392 13.4627 0.453392 12.7748 1.14105L10.2957 3.62014L13.4405 6.76499C14.1714 6.51807 15.0094 6.68368 15.592 7.26633C16.1774 7.85258 16.3418 8.69774 16.0889 9.431L19.1197 12.4618C19.853 12.2092 20.699 12.3727 21.2847 12.9593C22.1031 13.7774 22.1031 15.1035 21.2847 15.9223C20.4659 16.7411 19.1398 16.7411 18.3207 15.9223C17.7051 15.3061 17.553 14.4018 17.8647 13.6433L15.0382 10.8168L15.0379 18.255C15.2374 18.354 15.4258 18.4857 15.592 18.6513C16.4105 19.4695 16.4105 20.7956 15.592 21.615C14.7733 22.4334 13.4465 22.4334 12.629 21.615C11.8105 20.7956 11.8105 19.4695 12.629 18.6513C12.8312 18.4494 13.0652 18.2967 13.3148 18.1941V10.6866C13.0652 10.5846 12.8315 10.4328 12.629 10.2294C12.0088 9.61012 11.8597 8.70014 12.1774 7.93868L9.0776 4.83824L0.891454 13.0238C0.2035 13.712 0.2035 14.8272 0.891454 15.5149L12.8303 27.4531C13.5177 28.1408 14.6325 28.1408 15.3208 27.4531L27.2038 15.5704C27.8915 14.8824 27.8915 13.7666 27.2038 13.079Z" fill="white"/>
</svg>
