<svg width="28" height="20" viewBox="0 0 28 20" fill="none" xmlns="http://www.w3.org/2000/svg">
<path d="M9.09631 14.7715C8.96813 13.9352 8.61565 13.2558 7.76008 12.9273C7.42522 12.7991 7.13522 12.5652 6.80517 12.4178C6.43026 12.2496 6.04893 12.0894 5.65319 11.9852C5.35358 11.9051 5.0748 12.0397 4.89696 12.3025C4.72873 12.5492 4.85049 12.7815 4.99149 12.9882C5.1501 13.2205 5.32635 13.4416 5.50419 13.6595C5.79899 14.0216 6.11142 14.3693 6.39821 14.7362C6.67219 15.0871 6.90611 15.4765 6.86605 15.9411C6.77793 16.9601 6.3165 17.8045 5.57308 18.4918C5.49137 18.5655 5.34717 18.6184 5.24143 18.6087C4.76718 18.5575 4.33619 18.378 3.98851 18.0464C3.58957 17.6667 3.65045 17.2196 4.1279 16.9425C4.24166 16.8768 4.36022 16.8159 4.46437 16.7358C4.75596 16.5163 4.8537 16.1414 4.69508 15.8161C4.61978 15.6591 4.53486 15.4893 4.40989 15.3755C3.79946 14.8196 3.20018 14.2459 2.54649 13.7397C0.961864 12.5091 0.148003 10.8814 0.0229787 8.91062C-0.118014 6.72197 0.389881 4.67917 1.54506 2.80936C1.98246 2.09959 2.49196 1.42341 3.27383 1.07258C3.80576 0.833854 4.38896 0.69927 4.95779 0.550266C6.52318 0.138502 8.10289 -0.170721 9.73238 0.104856C11.1359 0.340379 12.163 1.06297 12.634 2.44246C12.9432 3.34449 13.0169 4.27697 12.9208 5.23193C12.7317 7.10815 11.3458 8.78565 9.53851 9.28233C8.75504 9.49702 8.32725 9.37686 7.85621 8.72476C7.51815 8.25532 7.23776 7.74422 6.93495 7.24909C6.89009 7.17539 6.85804 7.09047 6.81959 7.01197C6.78274 6.93346 6.74268 6.85816 6.70423 6.77965C6.81799 7.59356 7.00705 8.37709 7.45085 9.07559C7.69118 9.45531 8.01162 9.73569 8.48106 9.77735C10.2082 9.93276 11.6663 9.36559 12.7013 7.97643C13.8597 6.42225 14.1145 4.6342 13.7796 2.75163C13.7139 2.37992 13.6033 2.01622 13.5248 1.64611C13.472 1.40739 13.5665 1.23114 13.802 1.14783C13.911 1.11098 14.0231 1.08054 14.1321 1.05811C15.5452 0.753691 16.9744 0.652753 18.4148 0.798553C20.0491 0.961977 21.5952 1.41059 22.9779 2.31909C25.1425 3.74344 26.4835 5.77027 27.2125 8.22168C27.3183 8.57736 27.3343 8.9667 27.3439 9.34166C27.3503 9.5916 27.1901 9.65729 26.9994 9.50028C26.7895 9.32884 26.5973 9.13338 26.4162 8.9315C26.248 8.74084 26.1134 8.52294 25.95 8.32267C25.8234 8.16565 25.7129 8.18968 25.652 8.38515C25.6135 8.50371 25.5799 8.62067 25.5462 8.73924C25.1681 10.0883 24.5721 11.3188 23.606 12.3554C23.4714 12.5012 23.3512 12.7175 23.3352 12.9098C23.2936 13.4417 23.2631 13.9849 23.3144 14.5152C23.4201 15.6544 23.5852 16.7887 23.7133 17.9263C23.7854 18.5688 23.5787 18.9469 22.9747 19.1697C22.5501 19.3251 22.0951 19.4388 21.6465 19.4709C20.9319 19.5206 20.2109 19.4853 19.4932 19.4853C19.4739 18.6842 19.5428 17.8975 18.7898 17.4681C18.9356 16.8737 19.1038 16.3097 19.2048 15.7329C19.2881 15.2539 19.2176 14.7828 18.8811 14.3903C18.5655 14.0202 18.1697 13.9192 17.8076 14.1307C16.7165 14.7668 15.5821 14.77 14.4269 14.3534C13.8966 14.1612 13.5265 14.2701 13.2332 14.754C12.9176 15.2747 12.7846 15.8595 12.8199 16.4508C12.8647 17.1958 12.9945 17.9328 13.0938 18.6746C13.1483 19.0896 13.1018 19.1969 12.6901 19.3027C11.7752 19.535 10.8444 19.5606 9.90862 19.4853C9.85895 19.4805 9.80928 19.4597 9.77724 19.4517C9.73078 18.6746 9.81249 17.867 8.88642 17.4537C9.29658 16.5837 9.2405 15.6816 9.09951 14.7796L9.09631 14.7716V14.7715ZM3.56548 11.7225C3.70167 11.5943 3.81062 11.3941 3.84907 11.2098C3.9452 10.7484 3.59913 10.1299 3.19858 9.95851C2.98549 9.86558 2.79963 9.89922 2.64903 10.0691C2.28212 10.484 1.92003 10.9038 1.55948 11.3252C1.4986 11.3973 1.44412 11.4822 1.40087 11.5672C1.25667 11.8443 1.34158 12.0462 1.6492 12.1215C1.83506 12.168 2.02732 12.1776 2.21798 12.2048C2.71466 12.1568 3.19532 12.0735 3.56543 11.7242V11.7226L3.56548 11.7225ZM3.60714 7.10975C3.60554 6.7797 3.32996 6.50412 3.00471 6.50252C2.66986 6.50092 2.38146 6.80053 2.39268 7.13058C2.4071 7.46224 2.68267 7.7282 3.01272 7.72179C3.34598 7.71698 3.61195 7.44461 3.60874 7.11135L3.60714 7.10975Z" fill="white"/>
</svg>
