<svg width="28" height="35" viewBox="0 0 28 35" fill="none" xmlns="http://www.w3.org/2000/svg">
<path d="M26.8474 26.3805C26.6815 26.0485 26.5155 25.7166 26.5155 25.3846C26.5155 24.7208 26.1836 24.2229 25.6857 23.725C25.5197 23.559 25.1878 23.393 25.0218 23.393C26.0176 20.4056 24.5239 17.4182 22.8642 15.2606C21.5364 13.269 19.5448 11.7752 19.7108 9.11975C19.7108 5.96635 20.0427 0.157457 14.2338 0.655362C8.25898 0.987299 9.91867 7.12813 9.7527 9.28572C9.7527 11.1114 8.92286 12.937 7.59511 14.4307C7.26317 14.7627 6.93124 15.2606 6.76527 15.5925C5.10559 17.5841 4.27574 20.2396 4.27574 22.7291C3.94381 23.0611 3.61187 23.393 3.4459 23.725C3.27993 23.8909 3.11397 24.0569 3.11397 24.2229C2.948 24.3888 2.61606 24.5548 2.28412 24.7208C1.62025 24.8867 1.12235 25.2187 0.790409 25.8825C0.624441 26.3805 0.458472 27.0443 0.624441 27.7082C0.790409 28.0401 0.790409 28.3721 0.624441 28.87C0.292504 29.5339 0.292504 30.3637 0.624441 31.1935C1.12235 31.8574 1.95219 32.0234 3.11397 32.1893C3.94381 32.1893 4.93962 32.5213 5.76946 32.8532C6.5993 33.3511 7.59511 33.6831 8.59092 33.6831C9.08883 33.6831 9.7527 33.5171 10.2506 33.3511C10.7485 33.0192 11.0804 32.6872 11.2464 32.1893C11.9103 32.1893 12.9061 31.8574 14.0679 31.8574C15.0637 31.8574 16.0595 32.1893 17.3872 32.0234C17.3872 32.1893 17.3872 32.3553 17.5532 32.5213C17.8851 33.3511 18.715 34.015 19.7108 34.181H20.0427C21.3705 34.015 22.6982 33.3511 23.5281 32.3553C24.1919 31.6914 25.0218 31.1935 25.8516 30.8616C26.8474 30.3637 27.5113 30.0318 27.6773 29.2019C27.8432 28.0401 27.5113 27.3763 26.8474 26.3805ZM15.3956 5.13651C16.3914 5.30248 17.2213 6.13232 17.0553 7.12813C17.0553 7.62603 16.8893 8.12394 16.5574 8.62184C16.5574 8.62184 16.5574 8.62184 16.3914 8.62184C16.0595 8.45587 15.8935 8.45587 15.7276 8.28991C15.8935 8.12394 15.8935 7.792 16.0595 7.46006C16.0595 6.79619 15.7276 6.29829 15.3956 6.29829C14.8977 6.29829 14.5658 6.79619 14.5658 7.46006V7.62603C14.3998 7.46006 14.0679 7.46006 13.9019 7.2941V7.12813C13.7359 6.29829 14.3998 5.30248 15.3956 5.13651ZM14.8977 8.45587C15.0637 8.62184 15.3956 8.78781 15.5616 8.78781C15.7276 8.78781 16.0595 8.95378 16.2255 9.11975C16.5574 9.28572 16.8893 9.45168 16.8893 9.94959C16.8893 10.4475 16.3914 10.9454 15.3956 11.2773C15.0637 11.4433 14.8977 11.4433 14.7317 11.6093C14.2338 11.9412 13.7359 12.1072 13.0721 12.1072C12.5742 12.1072 12.0763 11.7752 11.7443 11.4433C11.5784 11.2773 11.4124 11.1114 11.0804 10.9454C10.9145 10.7794 10.5825 10.4475 10.4166 9.94959C10.4166 9.78362 10.5825 9.61765 10.7485 9.45168C11.2464 9.11975 11.4124 8.95378 11.5784 8.78781L11.7443 8.62184C12.0763 8.12394 12.7401 7.792 13.404 7.792C13.9019 7.95797 14.3998 8.12394 14.8977 8.45587ZM11.4124 5.46844C12.0763 5.46844 12.5742 6.13232 12.7401 7.2941V7.62603C12.5742 7.62603 12.2422 7.792 12.0763 7.95797C12.0763 7.95797 12.0763 7.792 12.0763 7.62603C12.0763 7.12813 11.7443 6.63022 11.4124 6.79619C11.0804 6.79619 10.9145 7.2941 10.9145 7.792C10.9145 8.12394 11.0804 8.28991 11.2464 8.45587C11.4124 8.62184 11.0804 8.62184 10.9145 8.62184C10.5825 8.28991 10.2506 7.792 10.2506 7.2941C10.2506 6.29829 10.7485 5.46844 11.4124 5.46844ZM9.7527 32.1893C8.59092 32.6872 7.09721 32.5213 6.1014 31.8574C5.10559 31.3595 4.27574 31.1935 3.11397 31.1935C2.28412 31.0276 1.45428 31.0276 1.28831 30.6956C1.12235 30.3637 1.12235 29.8658 1.45428 29.0359C1.62025 28.538 1.62025 28.0401 1.45428 27.5422C1.28831 27.0443 1.28831 26.7124 1.45428 26.2145C1.62025 25.7166 1.95219 25.5506 2.45009 25.3846C2.948 25.2187 3.27993 25.0527 3.61187 24.7208C3.77784 24.5548 3.94381 24.3888 4.10978 24.0569C4.60768 23.393 4.93962 23.0611 5.43752 23.0611C6.43333 23.2271 7.26317 24.7208 7.92705 26.2145C8.25898 26.7124 8.59092 27.3763 9.08883 27.8742C9.7527 28.704 10.5825 29.8658 10.5825 30.5297C10.5825 31.3595 10.2506 31.8574 9.7527 32.1893ZM17.8851 28.538C17.8851 28.704 17.8851 28.704 17.7192 28.87C15.7276 30.3637 13.0721 30.5297 10.9145 29.3679C10.5825 28.87 10.2506 28.3721 9.91867 27.8742C11.4124 27.7082 11.0804 25.7166 7.92705 23.725C4.60768 21.5674 6.93124 17.5841 8.09302 15.7585C8.25898 15.5925 8.25898 15.7585 7.59511 17.0862C7.09721 18.082 6.1014 20.5716 7.42914 22.3972C7.42914 21.0695 7.76108 19.7417 8.25898 18.414C9.42076 16.2564 10.2506 13.7669 10.7485 11.2773C10.9145 11.4433 10.9145 11.4433 11.0804 11.4433C11.2464 11.6093 11.4124 11.7752 11.5784 11.7752C11.9103 12.2731 12.5742 12.4391 13.0721 12.4391H13.238C13.9019 12.4391 14.5658 12.2731 15.0637 11.7752C15.2297 11.6093 15.3956 11.4433 15.7276 11.4433C16.2255 11.2773 16.7234 10.9454 17.2213 10.4475C17.8851 12.6051 18.549 14.5967 19.5448 16.4224C20.2087 17.7501 20.7066 19.0778 21.0385 20.5716C21.5365 20.5716 22.2003 20.7375 22.6982 21.0695C24.026 21.7333 24.5239 22.2312 24.3579 23.0611C24.1919 23.0611 24.1919 23.0611 24.026 23.0611C24.026 22.5632 23.694 22.0653 22.5323 21.5674C21.3705 21.0695 20.3747 21.0695 20.0427 22.2312C19.8768 22.2312 19.7108 22.3972 19.5448 22.3972C18.2171 23.0611 18.2171 24.8867 18.0511 26.7124C18.2171 27.3763 18.0511 27.8742 17.8851 28.538ZM25.5197 29.5339C24.5239 29.8658 23.694 30.5297 23.0302 31.3595C22.3663 32.3553 21.2045 33.0192 19.8768 32.8532C19.2129 32.8532 18.549 32.3553 18.3831 31.6914C18.2171 30.6956 18.2171 29.6998 18.715 28.704C18.881 28.0401 19.0469 27.5422 19.2129 26.8784C19.3789 24.8867 19.3789 23.725 20.2087 23.2271C20.2087 24.0569 20.7066 24.5548 21.3705 24.8867C22.2003 24.8867 23.0302 24.7208 23.694 24.0569H24.026C24.5239 24.0569 24.8558 24.0569 25.1878 24.3888C25.5197 24.7208 25.6857 25.2187 25.6857 25.5506C25.6857 26.0485 26.0176 26.5464 26.1836 27.0443C27.0134 27.8742 27.0134 28.3721 27.0134 28.538C26.8474 28.87 26.1836 29.2019 25.5197 29.5339ZM10.5825 9.61765C10.4166 9.61765 10.4166 9.61765 10.4166 9.78362C10.4166 9.78362 10.4166 9.94959 10.5825 9.94959C10.7485 9.94959 10.7485 10.1156 10.7485 10.1156C11.2464 10.7794 12.0763 11.1114 13.0721 11.2773C13.9019 11.1114 14.7317 10.9454 15.5616 10.2815C15.8935 10.1156 16.2255 9.94959 16.5574 9.78362C16.7234 9.78362 16.7234 9.61765 16.7234 9.61765C16.7234 9.45168 16.7234 9.45168 16.5574 9.45168C16.2255 9.61765 15.7276 9.78362 15.3956 9.94959C14.7317 10.4475 13.9019 10.7794 13.0721 10.7794C12.2422 10.7794 11.5784 10.2815 11.0804 9.78362C10.9145 9.78362 10.7485 9.61765 10.5825 9.61765Z" fill="white"/>
</svg>
