<svg width="91" height="68" viewBox="0 0 91 68" fill="none" xmlns="http://www.w3.org/2000/svg">
<path d="M4.83047 0.0229889C3.32808 0.263371 1.98272 1.09073 1.09035 2.32305C0.197977 3.55537 -0.168307 5.09171 0.0720749 6.5941C0.312457 8.09649 1.13981 9.44185 2.37214 10.3342C3.60446 11.2266 5.1408 11.5929 6.64319 11.3525H23.6374L24.6571 14.1849L29.3022 28.3467L33.9473 42.5086C34.4005 43.9815 36.3265 45.341 37.7993 45.341H77.4526C79.0387 45.341 80.8514 43.9815 81.3046 42.5086L90.4815 14.1849C90.9347 12.712 90.2549 11.3525 88.6688 11.3525H38.3658L34.0606 3.19525C33.602 2.25897 32.894 1.46739 32.0145 0.907682C31.1349 0.34797 30.118 0.0418357 29.0756 0.0229889L6.4166 0.0229889C6.0774 -0.00766296 5.73613 -0.00766296 5.39694 0.0229889C5.17056 0.00938123 4.94356 0.00938123 4.71717 0.0229889L4.83047 0.0229889ZM40.6317 56.6705C37.4594 56.6705 34.9669 59.163 34.9669 62.3352C34.9669 65.5075 37.4594 68 40.6317 68C43.804 68 46.2964 65.5075 46.2964 62.3352C46.2964 59.163 43.804 56.6705 40.6317 56.6705ZM74.6202 56.6705C71.4479 56.6705 68.9555 59.163 68.9555 62.3352C68.9555 65.5075 71.4479 68 74.6202 68C77.7925 68 80.285 65.5075 80.285 62.3352C80.285 59.163 77.7925 56.6705 74.6202 56.6705Z" fill="white"/>
</svg>
