<svg width="56" height="62" viewBox="0 0 56 62" fill="none" xmlns="http://www.w3.org/2000/svg">
<path d="M0.875977 34.8718C0.875977 28.6384 2.78947 23.094 6.61646 18.2387C10.4435 13.3834 15.3147 10.1819 21.2301 8.63413V15.7581C17.2229 17.1786 13.963 19.6275 11.4506 23.1046C8.9381 26.5818 7.68187 30.5042 7.68187 34.8718C7.68187 37.6281 8.21723 40.2625 9.28794 42.7749C10.3586 45.2874 11.8057 47.45 13.6291 49.2628C15.4525 51.0756 17.6151 52.5226 20.1169 53.6039C22.6188 54.6852 25.2479 55.2259 28.0042 55.2259C30.7604 55.2259 33.3895 54.6906 35.8914 53.6198C38.3932 52.5491 40.5505 51.1021 42.3633 49.2787C44.1761 47.4553 45.6179 45.2874 46.6886 42.7749C47.7593 40.2625 48.2946 37.6281 48.2946 34.8718C48.2946 30.5042 47.0384 26.5765 44.5259 23.0887C42.0135 19.601 38.7537 17.1574 34.7464 15.7581V8.63413C40.6619 10.1819 45.5331 13.3834 49.36 18.2387C53.187 23.094 55.1005 28.6384 55.1005 34.8718C55.1005 38.561 54.385 42.0753 52.9538 45.4146C51.5227 48.7539 49.5986 51.6374 47.1815 54.0651C44.7645 56.4927 41.881 58.4221 38.531 59.8533C35.1811 61.2844 31.6721 62 28.0042 62C24.315 62 20.8007 61.2844 17.4614 59.8533C14.122 58.4221 11.2385 56.4927 8.81089 54.0651C6.38324 51.6374 4.45384 48.7539 3.0227 45.4146C1.59155 42.0753 0.875977 38.561 0.875977 34.8718ZM24.6012 31.5007C24.6012 32.4336 24.9351 33.2287 25.603 33.8859C26.2709 34.5432 27.0713 34.8718 28.0042 34.8718C28.9371 34.8718 29.7321 34.5432 30.3894 33.8859C31.0467 33.2287 31.3753 32.4336 31.3753 31.5007V4.30889C31.3753 3.37599 31.0467 2.58091 30.3894 1.92365C29.7321 1.26638 28.9371 0.937744 28.0042 0.937744C27.0713 0.937744 26.2709 1.26638 25.603 1.92365C24.9351 2.58091 24.6012 3.37599 24.6012 4.30889V31.5007Z" fill="#AD2C2C"/>
</svg>
