<svg width="45" height="80" viewBox="0 0 45 80" fill="none" xmlns="http://www.w3.org/2000/svg">
<path d="M32.8553 36.2439L16.2048 31.3721C14.2777 30.8171 12.9364 29.0133 12.9364 27.0091C12.9364 24.4961 14.9715 22.4611 17.4845 22.4611H27.706C29.5869 22.4611 31.4369 23.0315 32.9786 24.0799C33.9191 24.712 35.1833 24.5578 35.9849 23.7715L41.3501 18.5297C42.4447 17.4659 42.2905 15.693 41.0726 14.7525C37.2954 11.7925 32.5778 10.1428 27.7368 10.1274V2.72723C27.7368 1.37053 26.6268 0.260498 25.2701 0.260498H20.3366C18.9799 0.260498 17.8699 1.37053 17.8699 2.72723V10.1274H17.4845C7.6638 10.1274 -0.22974 18.5606 0.679867 28.5662C1.32738 35.6735 6.75419 41.4549 13.5994 43.4591L29.4019 48.0842C31.329 48.6547 32.6703 50.443 32.6703 52.4473C32.6703 54.9602 30.6352 56.9953 28.1222 56.9953H17.9007C16.0198 56.9953 14.1698 56.4249 12.6281 55.3765C11.6876 54.7444 10.4235 54.8986 9.62176 55.6848L4.25663 60.9266C3.16201 61.9904 3.31618 63.7634 4.53413 64.7038C8.31131 67.6639 13.0289 69.3135 17.8699 69.3289V76.7291C17.8699 78.0858 18.9799 79.1959 20.3366 79.1959H25.2701C26.6268 79.1959 27.7368 78.0858 27.7368 76.7291V69.2981C34.9212 69.1593 41.6584 64.8888 44.0326 58.0899C47.3473 48.593 41.7818 38.8494 32.8553 36.2439Z" fill="white"/>
</svg>
