<svg width="161" height="184" viewBox="0 0 161 184" fill="none" xmlns="http://www.w3.org/2000/svg">
<path d="M69.0269 0.48175C56.4098 0.48175 46.0868 10.8048 46.0868 23.4219H23.1467C10.5296 23.4219 0.206543 33.7449 0.206543 46.362H160.787C160.787 33.7449 150.464 23.4219 137.847 23.4219H114.907C114.907 10.8048 104.584 0.48175 91.967 0.48175H69.0269ZM23.1467 69.3021V179.644C23.1467 182.167 24.9819 184.003 27.5053 184.003H133.718C136.241 184.003 138.077 182.167 138.077 179.644V69.3021H115.136V149.592C115.136 156.016 110.09 161.063 103.666 161.063C97.2432 161.063 92.1964 156.016 92.1964 149.592V69.3021H69.2563V149.592C69.2563 156.016 64.2094 161.063 57.7862 161.063C51.363 161.063 46.3162 156.016 46.3162 149.592V69.3021H23.3761H23.1467Z" fill="white"/>
</svg>
