<svg width="59" height="84" viewBox="0 0 59 84" fill="none" xmlns="http://www.w3.org/2000/svg">
<path d="M29.5888 13.2682C20.9207 13.2682 13.8703 20.3186 13.8703 28.9868C13.8703 30.4342 15.0426 31.6065 16.49 31.6065C17.9374 31.6065 19.1098 30.4342 19.1098 28.9868C19.1098 23.2069 23.8122 18.5077 29.5888 18.5077C31.0362 18.5077 32.2086 17.3354 32.2086 15.888C32.2086 14.4406 31.0362 13.2682 29.5888 13.2682ZM16.4998 75.3515C16.4998 75.8673 16.6521 76.37 16.9387 76.7989L20.9518 82.8309C21.4381 83.5612 22.2568 84 23.1327 84H36.0432C36.9208 84 37.7395 83.5612 38.2242 82.8309L42.2373 76.7989C42.5222 76.37 42.6745 75.8657 42.6761 75.3515L42.6843 68.2815H16.4933L16.4998 75.3515ZM29.5888 0.169434C12.842 0.169434 0.771484 13.7545 0.771484 28.9868C0.771484 36.2517 3.46492 42.8797 7.90377 47.944C10.6283 51.0533 14.9018 57.5716 16.4867 63.0338V63.0436H24.346V63.0239C24.3444 62.2429 24.2281 61.4668 23.994 60.7202C23.0787 57.8041 20.2576 50.1151 13.8146 42.7634C10.4515 38.9271 8.65368 34.0609 8.63894 28.9868C8.60619 16.9293 18.409 8.0287 29.5888 8.0287C41.1452 8.0287 50.5469 17.4304 50.5469 28.9868C50.5469 34.0576 48.7065 38.95 45.3647 42.7634C38.961 50.0676 36.1267 57.7402 35.1967 60.6858C34.9567 61.4431 34.8341 62.2328 34.8332 63.0272V63.0436H42.6925V63.0354C44.2775 57.5716 48.5509 51.0533 51.2755 47.9456C55.7127 42.8797 58.4061 36.2517 58.4061 28.9868C58.4061 13.0717 45.5038 0.169434 29.5888 0.169434Z" fill="white"/>
</svg>
