<svg width="23" height="23" viewBox="0 0 23 23" fill="none" xmlns="http://www.w3.org/2000/svg">
<path d="M21.7411 0.711426H15.0674C14.4857 0.711426 14.0143 1.18283 14.0143 1.76444C14.0143 2.34606 14.4857 2.81746 15.0674 2.81746H19.1989L9.10166 12.9147C8.6904 13.326 8.6904 13.9927 9.10166 14.4039C9.30735 14.6095 9.5768 14.7123 9.84626 14.7123C10.1157 14.7123 10.3852 14.6095 10.5909 14.4039L20.6881 4.30666V8.43835C20.6881 9.01997 21.1595 9.49137 21.7411 9.49137C22.3228 9.49137 22.7942 9.01997 22.7942 8.43835V1.76456C22.7942 1.18283 22.3228 0.711426 21.7411 0.711426Z" fill="white"/>
<path d="M17.4333 9.49116C16.8517 9.49116 16.3803 9.96256 16.3803 10.5442V20.8937H2.10603V6.61946H13.0782C13.6599 6.61946 14.1313 6.14806 14.1313 5.56644C14.1313 4.98483 13.6599 4.51343 13.0782 4.51343H1.05302C0.471401 4.51343 0 4.98483 0 5.56644V21.9467C0 22.5283 0.471401 22.9997 1.05302 22.9997H17.4333C18.0149 22.9997 18.4863 22.5283 18.4863 21.9467V10.5442C18.4863 9.96256 18.0149 9.49116 17.4333 9.49116Z" fill="white"/>
</svg>
