<svg width="27" height="27" viewBox="0 0 27 27" fill="none" xmlns="http://www.w3.org/2000/svg">
<path d="M0 0V27H27V0H0ZM14.6938 21.0571C14.6938 23.6848 13.1509 24.8844 10.9032 24.8844C8.87239 24.8844 7.69693 23.8362 7.09425 22.5643L9.16168 21.3165C9.55993 22.0214 9.92154 22.6183 10.7952 22.6183C11.6264 22.6183 12.1568 22.2924 12.1568 21.0214V12.3969H14.6938V21.0571ZM20.6955 24.8844C18.3388 24.8844 16.8142 23.7639 16.0727 22.2924L18.1401 21.0995C18.683 21.9857 19.3937 22.6424 20.6415 22.6424C21.6897 22.6424 22.3656 22.1178 22.3656 21.3888C22.3656 20.521 21.6781 20.2134 20.5152 19.7013L19.8826 19.4304C18.0505 18.6531 16.8393 17.6705 16.8393 15.6031C16.8393 13.6986 18.2915 12.2522 20.5518 12.2522C22.167 12.2522 23.3241 12.8125 24.1563 14.283L22.1795 15.5491C21.7456 14.7719 21.275 14.4643 20.546 14.4643C19.8055 14.4643 19.3349 14.9349 19.3349 15.5491C19.3349 16.309 19.8055 16.6156 20.8961 17.092L21.5286 17.3629C23.6867 18.2848 24.8979 19.2317 24.8979 21.3522C24.8979 23.6308 23.1014 24.8834 20.6965 24.8834L20.6955 24.8844Z" fill="white"/>
</svg>
