<svg width="36" height="35" viewBox="0 0 36 35" fill="none" xmlns="http://www.w3.org/2000/svg">
<path d="M18 0C13.6506 0 10.125 3.85615 10.125 8.61328C10.125 12.4592 15.2719 19.4688 17.2437 22.0131C17.6431 22.5285 18.3575 22.5285 18.7563 22.0131C20.7281 19.4688 25.875 12.4592 25.875 8.61328C25.875 3.85615 22.3494 0 18 0ZM18 11.4844C16.55 11.4844 15.375 10.1992 15.375 8.61328C15.375 7.02734 16.55 5.74219 18 5.74219C19.45 5.74219 20.625 7.02734 20.625 8.61328C20.625 10.1992 19.45 11.4844 18 11.4844ZM1.2575 14.7622C0.886361 14.9246 0.568207 15.2048 0.344068 15.5668C0.11993 15.9288 8.8888e-05 16.356 0 16.7932L0 33.9049C0 34.6787 0.714375 35.2078 1.37125 34.9207L10 30.625V14.6918C9.4475 13.5994 8.99562 12.5357 8.67188 11.5186L1.2575 14.7622ZM18 24.5868C17.1206 24.5868 16.2887 24.1644 15.7181 23.4274C14.4894 21.8415 13.1825 20.0354 12 18.1829V30.6243L24 34.9993V18.1836C22.8175 20.0354 21.5113 21.8422 20.2819 23.4281C19.7113 24.1644 18.8794 24.5868 18 24.5868ZM34.6287 11.0168L26 15.3125V35L34.7425 31.1753C35.1137 31.013 35.4319 30.7328 35.656 30.3708C35.8802 30.0087 36 29.5816 36 29.1443V12.0326C36 11.2588 35.2856 10.7297 34.6287 11.0168Z" fill="#FFE24C"/>
</svg>
