<svg width="36" height="56" viewBox="0 0 36 56" fill="none" xmlns="http://www.w3.org/2000/svg">
<path d="M18.0008 45.6896C16.7953 45.6896 15.8169 44.7112 15.8169 43.5057V35.9528C15.8169 34.7472 16.7953 33.7688 18.0008 33.7688C19.2064 33.7688 20.1848 34.7472 20.1848 35.9528V43.5057C20.1848 44.7112 19.2064 45.6896 18.0008 45.6896Z" fill="#FFE24C"/>
<path d="M17.9817 55.9087C8.06659 55.9087 0 47.8421 0 37.927V17.9816C0 8.06651 8.06659 -7.24792e-05 17.9817 -7.24792e-05H18.0183C27.9334 -7.24792e-05 36 8.06651 36 17.9816V37.927C36.0017 47.8421 27.9352 55.9087 17.9817 55.9087ZM31.6339 17.9816C31.6339 10.4741 25.5276 4.3678 18.0201 4.3678H17.9834C10.4777 4.3678 4.36962 10.4741 4.36962 17.9816V37.927C4.36962 45.4328 10.4777 51.5408 18.0201 51.5408C25.5276 51.5408 31.6339 45.4328 31.6339 37.927V17.9816Z" fill="white"/>
</svg>
